<?xml version="1.0" encoding="UTF-8" standalone="no"?>
<svg width="462px" height="226px" viewBox="0 0 462 226" version="1.1" xmlns="http://www.w3.org/2000/svg" xmlns:xlink="http://www.w3.org/1999/xlink" xmlns:sketch="http://www.bohemiancoding.com/sketch/ns">
    <!-- Generator: Sketch 3.4.2 (15857) - http://www.bohemiancoding.com/sketch -->
    <title>Artboard 2</title>
    <desc>Created with Sketch.</desc>
    <defs></defs>
    <g id="Welcome" stroke="none" stroke-width="1" fill="none" fill-rule="evenodd" sketch:type="MSPage">
        <g id="Artboard-2" sketch:type="MSArtboardGroup">
            <g id="Icon-2" sketch:type="MSLayerGroup">
                <path d="M198,50.108243 L198,34.9246788 C198,33.3094233 196.668406,32 195,32 C193.343146,32 192,33.3201832 192,34.9246788 L192,50.108243 L198.444458,50.1082439" id="Rectangle-104" stroke="#0A76E8" sketch:type="MSShapeGroup"></path>
                <path d="M189,34.9722479 C189,31.6738665 191.686292,29 195,29 C198.313708,29 201,31.6738665 201,34.9722479" id="Oval-14" stroke="#0A76E8" stroke-linecap="round" stroke-linejoin="round" sketch:type="MSShapeGroup"></path>
                <path d="M109,207.31301 L113.33141,203" id="Path-172-Copy" stroke="#0A76E8" stroke-width="1.2" stroke-linecap="round" stroke-linejoin="round" sketch:type="MSShapeGroup"></path>
                <path d="M108.758189,200.157576 L108.758189,221.311059" id="Path-171" stroke="#0A76E8" stroke-width="1.2" stroke-linecap="round" stroke-linejoin="round" sketch:type="MSShapeGroup"></path>
                <path d="M108.33141,210.31301 L104,206" id="Path-172" stroke="#0A76E8" stroke-width="1.2" stroke-linecap="round" stroke-linejoin="round" sketch:type="MSShapeGroup"></path>
                <path d="M108.921291,215.063147 C108.921291,215.063147 91.9521677,211.99167 102.398797,195.150269 C106.493371,188.549252 112.326904,191.126818 114.01818,193.973925 C115.316969,196.160317 114.816123,198.664643 116.872748,200.877467 C124.039978,208.589045 108.921291,215.063147 108.921291,215.063147 Z" id="Path-174" stroke="#0A76E8" stroke-width="0.6" sketch:type="MSShapeGroup"></path>
                <rect id="Rectangle-89-Copy-3" stroke="#0A76E8" sketch:type="MSShapeGroup" x="165" y="195" width="10" height="25"></rect>
                <rect id="Rectangle-89-Copy-5" stroke="#0A76E8" sketch:type="MSShapeGroup" x="209" y="195" width="10" height="25"></rect>
                <rect id="Rectangle-95-Copy-3" stroke="#0A76E8" sketch:type="MSShapeGroup" x="161" y="188" width="18" height="4"></rect>
                <rect id="Rectangle-95-Copy-5" stroke="#0A76E8" sketch:type="MSShapeGroup" x="205" y="188" width="18" height="4"></rect>
                <path d="M178,190.992546 L162,190.992546 L162.990544,194.092612 C163.327137,195.146033 164.500071,196 165.6,196 L174.4,196 C175.504569,196 176.671418,195.150554 177.009456,194.092612 L178,190.992546 Z" id="Rectangle-94-Copy-3" stroke="#0A76E8" sketch:type="MSShapeGroup"></path>
                <path d="M222,191 L206,191 L206.990544,194.100066 C207.327137,195.153487 208.500071,196.007454 209.6,196.007454 L218.4,196.007454 C219.504569,196.007454 220.671418,195.158008 221.009456,194.100066 L222,191 Z" id="Rectangle-94-Copy-5" stroke="#0A76E8" sketch:type="MSShapeGroup"></path>
                <path d="M249,188 L137,188 L137,189 L249,189 L249,188 L249,188 Z" id="Shape" fill="#0A76E8" sketch:type="MSShapeGroup"></path>
                <path d="M240.534834,221.105793 L240.534834,200.524047 L240.534834,200.524047 C240.534834,196.920915 237.946192,194 234.767417,194 L234.767417,194 C231.582161,194 229,196.925598 229,200.524047 L229,221.105793" id="Rectangle-104" stroke="#0A76E8" sketch:type="MSShapeGroup"></path>
                <path d="M151.161621,200.443848 L151.161621,221.351074" id="Path-360" stroke="#0A76E8" sketch:type="MSShapeGroup"></path>
                <path d="M235,200 L235,220.907227" id="Path-360-Copy" stroke="#0A76E8" sketch:type="MSShapeGroup"></path>
                <path d="M145.568848,200.318848 L156.874892,200.318848" id="Path-361" stroke="#0A76E8" sketch:type="MSShapeGroup"></path>
                <path d="M229,200 L240.306045,200" id="Path-361-Copy" stroke="#0A76E8" sketch:type="MSShapeGroup"></path>
                <path d="M164,163.77832 L164,88.6475207 C164,88.6475207 164,58 196,58 C225,58 225,88.6475207 225,88.6475207 L225,163.77832" id="Rectangle-132" stroke="#0A76E8" stroke-width="2" sketch:type="MSShapeGroup"></path>
                <g id="Path-362-Copy-6-+-Group-Copy" transform="translate(215.000000, 173.000000) scale(-1, 1) translate(-215.000000, -173.000000) translate(194.000000, 165.000000)" stroke="#0A76E8" sketch:type="MSShapeGroup">
                    <path d="M41,0 L41,15.8215744" id="Path-362-Copy-6"></path>
                    <g id="Group-Copy">
                        <path d="M30.3333333,0.615384615 L30.3333333,15.3215744" id="Path-362-Copy-2"></path>
                        <path d="M20.5,1.84615385 L20.5,15.3215744" id="Path-362-Copy-3"></path>
                        <path d="M10.5,3.5 L10.5,15.3230767" id="Path-362-Copy-4"></path>
                        <path d="M0.5,6.81514376 L0.5,15.3213313" id="Path-362-Copy-5"></path>
                    </g>
                </g>
                <circle id="Oval-12" stroke="#0A76E8" sketch:type="MSShapeGroup" cx="195" cy="89" r="18"></circle>
                <path d="M178.688732,104.978236 C182.734375,109.366593 188.531575,112.115526 194.970824,112.115526 C201.817762,112.115526 207.938779,109.007485 212,104.125278" id="Oval-12-Copy-2" stroke="#0A76E8" sketch:type="MSShapeGroup"></path>
                <path d="M219,89 C219,75.745166 208.254834,65 195,65 C181.745166,65 171,75.745166 171,89" id="Oval-12-Copy" stroke="#0A76E8" sketch:type="MSShapeGroup"></path>
                <path d="M171,88.8789062 L171,162.332396" id="Path-366" stroke="#0A76E8" sketch:type="MSShapeGroup"></path>
                <path d="M219,89 L219,162.45349" id="Path-366-Copy" stroke="#0A76E8" sketch:type="MSShapeGroup"></path>
                <path d="M195,90.1572266 L206.920898,82" id="Path-368" stroke="#0A76E8" sketch:type="MSShapeGroup"></path>
                <circle id="Oval-13" stroke="#0A76E8" fill="#0A76E8" sketch:type="MSShapeGroup" cx="195" cy="90" r="2"></circle>
                <path d="M194.638377,89.6383772 L186,81" id="Path-369" stroke="#0A76E8" sketch:type="MSShapeGroup"></path>
                <path d="M194.916016,112.5 L194.916016,159.814292" id="Path-370" stroke="#0A76E8" stroke-linecap="round" stroke-linejoin="round" sketch:type="MSShapeGroup"></path>
                <path d="M184,109.5 L184,159.819175" id="Path-370-Copy" stroke="#0A76E8" stroke-linecap="round" stroke-linejoin="round" sketch:type="MSShapeGroup"></path>
                <path d="M206,109.5 L206,159.819175" id="Path-370-Copy-2" stroke="#0A76E8" stroke-linecap="round" stroke-linejoin="round" sketch:type="MSShapeGroup"></path>
                <path d="M172.47168,117.050293 L217.503907,117.050293" id="Path-373" stroke="#0A76E8" stroke-linecap="round" stroke-linejoin="round" sketch:type="MSShapeGroup"></path>
                <path d="M172,132 L217.032228,132" id="Path-373-Copy" stroke="#0A76E8" stroke-linecap="round" stroke-linejoin="round" sketch:type="MSShapeGroup"></path>
                <path d="M172,146 L217.032228,146" id="Path-373-Copy-2" stroke="#0A76E8" stroke-linecap="round" stroke-linejoin="round" sketch:type="MSShapeGroup"></path>
                <path d="M181,11.1883397 C183.603829,6.92078231 188.895264,4 194.999326,4 C201.104442,4 206.396649,6.92179025 209,11.1905487" id="Oval-14" stroke="#0A76E8" sketch:type="MSShapeGroup"></path>
                <path d="M195.5,3.25591463 L195.5,0.149078234" id="Path-197" stroke="#0A76E8" stroke-linecap="round" stroke-linejoin="round" sketch:type="MSShapeGroup"></path>
                <rect id="Rectangle-142" stroke="#0A76E8" sketch:type="MSShapeGroup" x="177" y="11" width="36" height="13" rx="2"></rect>
                <path d="M181,61 L181,24 L181,24 M209,24 L209,61" id="Rectangle-132" stroke="#0A76E8" stroke-width="2" sketch:type="MSShapeGroup"></path>
                <path d="M189.044067,52.5113525 L200.979187,52.5113525" id="Path-381" stroke="#0A76E8" stroke-linecap="round" stroke-linejoin="round" sketch:type="MSShapeGroup"></path>
                <g id="Group" transform="translate(139.000000, 95.000000)" stroke="#0A76E8" sketch:type="MSShapeGroup">
                    <path d="M17,66.9892578 L17,33.9246788 C17,32.3094233 15.6684055,31 14,31 C12.3431458,31 11,32.3201832 11,33.9246788 L11,69.0263672 L17,66.9892578 Z" id="Rectangle-104-Copy-7"></path>
                    <path d="M8,33.9722479 C8,30.6738665 10.6862915,28 14,28 C17.3137085,28 20,30.6738665 20,33.9722479" id="Oval-14-Copy-4" stroke-linecap="round" stroke-linejoin="round"></path>
                    <path d="M3,75 L3,26" id="Rectangle-132" stroke-width="2" stroke-linecap="round" stroke-linejoin="round"></path>
                    <path d="M18.5512695,7.43945312 C18.5512695,7.43945312 4.64355469,15.7941895 0.814941406,32.0622559" id="Path-383" stroke-width="2"></path>
                    <path d="M18.5024414,7.45703125 C18.5024414,7.45703125 24.5070801,3.84472656 25.0163574,0.0600585938" id="Path-384" stroke-width="2"></path>
                </g>
                <g id="Group" transform="translate(237.000000, 132.000000) scale(-1, 1) translate(-237.000000, -132.000000) translate(224.000000, 95.000000)" stroke="#0A76E8" sketch:type="MSShapeGroup">
                    <path d="M17,66.9892578 L17,33.9246788 C17,32.3094233 15.6684055,31 14,31 C12.3431458,31 11,32.3201832 11,33.9246788 L11,69.0263672 L17,66.9892578 Z" id="Rectangle-104-Copy-7"></path>
                    <path d="M8,33.9722479 C8,30.6738665 10.6862915,28 14,28 C17.3137085,28 20,30.6738665 20,33.9722479" id="Oval-14-Copy-4" stroke-linecap="round" stroke-linejoin="round"></path>
                    <path d="M3,74 L3,26" id="Rectangle-132" stroke-width="2" stroke-linecap="round" stroke-linejoin="round"></path>
                    <path d="M18.5512695,7.43945312 C18.5512695,7.43945312 4.64355469,15.7941895 0.814941406,32.0622559" id="Path-383" stroke-width="2"></path>
                    <path d="M18.5024414,7.45703125 C18.5024414,7.45703125 24.5070801,3.84472656 25.0163574,0.0600585938" id="Path-384" stroke-width="2"></path>
                </g>
                <path d="M122.255989,178.914419 C122.255989,178.914419 152.217895,159.5 194.943787,159.5 C237.669678,159.5 267.631588,178.914419 267.631588,178.914419" id="Rectangle-85-Copy" stroke="#0A76E8" stroke-width="2" sketch:type="MSShapeGroup" transform="translate(194.943789, 169.207209) scale(-1, 1) translate(-194.943789, -169.207209) "></path>
                <path d="M145.508789,177.365234 L145.508789,181.138184" id="Path-393" stroke="#0A76E8" stroke-linecap="round" stroke-linejoin="round" sketch:type="MSShapeGroup"></path>
                <path d="M244,177.5 L244,180.772949" id="Path-393-Copy" stroke="#0A76E8" stroke-linecap="round" stroke-linejoin="round" sketch:type="MSShapeGroup"></path>
                <path d="M371.683131,223.564815 L371.683131,130.277778 L371.683131,130.277778 L438.008427,130.277778 L438.008427,223.564815" id="Rectangle-58" stroke="#0A76E8" stroke-width="2" stroke-linecap="round" stroke-linejoin="round" sketch:type="MSShapeGroup" transform="translate(404.845779, 176.921296) scale(-1, 1) translate(-404.845779, -176.921296) "></path>
                <path d="M302.474127,223.564815 L302.474127,196.296296 L302.474127,196.296296 L371.683131,196.296296 L371.683131,223.564815" id="Rectangle-59" stroke="#0A76E8" stroke-width="2" sketch:type="MSShapeGroup" transform="translate(337.078629, 209.930556) scale(-1, 1) translate(-337.078629, -209.930556) "></path>
                <rect id="Rectangle-58" stroke="#0A76E8" stroke-width="2" sketch:type="MSShapeGroup" transform="translate(337.078629, 133.148148) scale(-1, 1) translate(-337.078629, -133.148148) " x="311.125253" y="70" width="51.9067532" height="126.296296"></rect>
                <path d="M378.892403,153.240741 L430.799156,153.240741" id="Path-175-Copy" stroke="#0A76E8" sketch:type="MSShapeGroup" transform="translate(404.845779, 153.240741) scale(-1, 1) translate(-404.845779, -153.240741) "></path>
                <path d="M378.892403,193.425926 L430.799156,193.425926" id="Path-175-Copy-3" stroke="#0A76E8" sketch:type="MSShapeGroup" transform="translate(404.845779, 193.425926) scale(-1, 1) translate(-404.845779, -193.425926) "></path>
                <path d="M378.892403,158.981481 L430.799156,158.981481" id="Path-175-Copy-2" stroke="#0A76E8" sketch:type="MSShapeGroup" transform="translate(404.845779, 158.981481) scale(-1, 1) translate(-404.845779, -158.981481) "></path>
                <path d="M416.380613,200.601852 L430.078229,200.601852" id="Path-175-Copy-5" stroke="#0A76E8" sketch:type="MSShapeGroup" transform="translate(423.589885, 200.601852) scale(-1, 1) translate(-423.589885, -200.601852) "></path>
                <path d="M378.892403,200.601852 L392.590018,200.601852" id="Path-175-Copy-6" stroke="#0A76E8" sketch:type="MSShapeGroup" transform="translate(386.101674, 200.601852) scale(-1, 1) translate(-386.101674, -200.601852) "></path>
                <rect id="Rectangle-59" stroke="#0A76E8" sketch:type="MSShapeGroup" transform="translate(426.473593, 143.194444) scale(-1, 1) translate(-426.473593, -143.194444) " x="423.589885" y="137.453704" width="5.76741703" height="11.4814815"></rect>
                <rect id="Rectangle-59-Copy-15" stroke="#0A76E8" sketch:type="MSShapeGroup" transform="translate(426.473593, 210.648148) scale(-1, 1) translate(-426.473593, -210.648148) " x="423.589885" y="204.907407" width="5.76741703" height="11.4814815"></rect>
                <rect id="Rectangle-59-Copy-10" stroke="#0A76E8" sketch:type="MSShapeGroup" x="423.589885" y="163.287037" width="5.76741703" height="25"></rect>
                <rect id="Rectangle-59-Copy" stroke="#0A76E8" sketch:type="MSShapeGroup" transform="translate(416.380613, 143.194444) scale(-1, 1) translate(-416.380613, -143.194444) " x="413.496905" y="137.453704" width="5.76741703" height="11.4814815"></rect>
                <rect id="Rectangle-59-Copy-6" stroke="#0A76E8" sketch:type="MSShapeGroup" transform="translate(352.883709, 83.740741) scale(-1, 1) translate(-352.883709, -83.740741) " x="350" y="78" width="5.76741703" height="11.4814815"></rect>
                <rect id="Rectangle-59-Copy-17" stroke="#0A76E8" sketch:type="MSShapeGroup" transform="translate(352.883709, 102.740741) scale(-1, 1) translate(-352.883709, -102.740741) " x="350" y="97" width="5.76741703" height="11.4814815"></rect>
                <rect id="Rectangle-59-Copy-11" stroke="#0A76E8" sketch:type="MSShapeGroup" x="413.496905" y="163.287037" width="5.76741703" height="25"></rect>
                <rect id="Rectangle-59-Copy-2" stroke="#0A76E8" sketch:type="MSShapeGroup" transform="translate(406.287633, 143.194444) scale(-1, 1) translate(-406.287633, -143.194444) " x="403.403925" y="137.453704" width="5.76741703" height="11.4814815"></rect>
                <rect id="Rectangle-59-Copy-7" stroke="#0A76E8" sketch:type="MSShapeGroup" transform="translate(342.883709, 83.740741) scale(-1, 1) translate(-342.883709, -83.740741) " x="340" y="78" width="5.76741703" height="11.4814815"></rect>
                <rect id="Rectangle-59-Copy-22" stroke="#0A76E8" sketch:type="MSShapeGroup" transform="translate(342.883709, 102.740741) scale(-1, 1) translate(-342.883709, -102.740741) " x="340" y="97" width="5.76741703" height="11.4814815"></rect>
                <rect id="Rectangle-59-Copy-12" stroke="#0A76E8" sketch:type="MSShapeGroup" x="403.403925" y="163.287037" width="5.76741703" height="25"></rect>
                <rect id="Rectangle-59-Copy-3" stroke="#0A76E8" sketch:type="MSShapeGroup" transform="translate(396.194654, 143.194444) scale(-1, 1) translate(-396.194654, -143.194444) " x="393.310945" y="137.453704" width="5.76741703" height="11.4814815"></rect>
                <rect id="Rectangle-59-Copy-8" stroke="#0A76E8" sketch:type="MSShapeGroup" transform="translate(332.883709, 83.740741) scale(-1, 1) translate(-332.883709, -83.740741) " x="330" y="78" width="5.76741703" height="11.4814815"></rect>
                <rect id="Rectangle-59-Copy-23" stroke="#0A76E8" sketch:type="MSShapeGroup" transform="translate(332.883709, 102.740741) scale(-1, 1) translate(-332.883709, -102.740741) " x="330" y="97" width="5.76741703" height="11.4814815"></rect>
                <rect id="Rectangle-59-Copy-13" stroke="#0A76E8" sketch:type="MSShapeGroup" x="393.310945" y="163.287037" width="5.76741703" height="25"></rect>
                <rect id="Rectangle-59-Copy-4" stroke="#0A76E8" sketch:type="MSShapeGroup" transform="translate(386.101674, 143.194444) scale(-1, 1) translate(-386.101674, -143.194444) " x="383.217965" y="137.453704" width="5.76741703" height="11.4814815"></rect>
                <rect id="Rectangle-59-Copy-9" stroke="#0A76E8" sketch:type="MSShapeGroup" transform="translate(322.883709, 83.740741) scale(-1, 1) translate(-322.883709, -83.740741) " x="320" y="78" width="5.76741703" height="11.4814815"></rect>
                <rect id="Rectangle-59-Copy-24" stroke="#0A76E8" sketch:type="MSShapeGroup" transform="translate(322.883709, 102.740741) scale(-1, 1) translate(-322.883709, -102.740741) " x="320" y="97" width="5.76741703" height="11.4814815"></rect>
                <rect id="Rectangle-59-Copy-28" stroke="#0A76E8" sketch:type="MSShapeGroup" transform="translate(352.883709, 121.740741) scale(-1, 1) translate(-352.883709, -121.740741) " x="350" y="116" width="5.76741703" height="11.4814815"></rect>
                <rect id="Rectangle-59-Copy-27" stroke="#0A76E8" sketch:type="MSShapeGroup" transform="translate(342.883709, 121.740741) scale(-1, 1) translate(-342.883709, -121.740741) " x="340" y="116" width="5.76741703" height="11.4814815"></rect>
                <rect id="Rectangle-59-Copy-26" stroke="#0A76E8" sketch:type="MSShapeGroup" transform="translate(332.883709, 121.740741) scale(-1, 1) translate(-332.883709, -121.740741) " x="330" y="116" width="5.76741703" height="11.4814815"></rect>
                <rect id="Rectangle-59-Copy-25" stroke="#0A76E8" sketch:type="MSShapeGroup" transform="translate(322.883709, 121.740741) scale(-1, 1) translate(-322.883709, -121.740741) " x="320" y="116" width="5.76741703" height="11.4814815"></rect>
                <rect id="Rectangle-59-Copy-32" stroke="#0A76E8" sketch:type="MSShapeGroup" transform="translate(352.883709, 140.740741) scale(-1, 1) translate(-352.883709, -140.740741) " x="350" y="135" width="5.76741703" height="11.4814815"></rect>
                <rect id="Rectangle-59-Copy-31" stroke="#0A76E8" sketch:type="MSShapeGroup" transform="translate(342.883709, 140.740741) scale(-1, 1) translate(-342.883709, -140.740741) " x="340" y="135" width="5.76741703" height="11.4814815"></rect>
                <rect id="Rectangle-59-Copy-30" stroke="#0A76E8" sketch:type="MSShapeGroup" transform="translate(332.883709, 140.740741) scale(-1, 1) translate(-332.883709, -140.740741) " x="330" y="135" width="5.76741703" height="11.4814815"></rect>
                <rect id="Rectangle-59-Copy-29" stroke="#0A76E8" sketch:type="MSShapeGroup" transform="translate(322.883709, 140.740741) scale(-1, 1) translate(-322.883709, -140.740741) " x="320" y="135" width="5.76741703" height="11.4814815"></rect>
                <rect id="Rectangle-59-Copy-36" stroke="#0A76E8" sketch:type="MSShapeGroup" transform="translate(352.883709, 159.740741) scale(-1, 1) translate(-352.883709, -159.740741) " x="350" y="154" width="5.76741703" height="11.4814815"></rect>
                <rect id="Rectangle-59-Copy-35" stroke="#0A76E8" sketch:type="MSShapeGroup" transform="translate(342.883709, 159.740741) scale(-1, 1) translate(-342.883709, -159.740741) " x="340" y="154" width="5.76741703" height="11.4814815"></rect>
                <rect id="Rectangle-59-Copy-34" stroke="#0A76E8" sketch:type="MSShapeGroup" transform="translate(332.883709, 159.740741) scale(-1, 1) translate(-332.883709, -159.740741) " x="330" y="154" width="5.76741703" height="11.4814815"></rect>
                <rect id="Rectangle-59-Copy-33" stroke="#0A76E8" sketch:type="MSShapeGroup" transform="translate(322.883709, 159.740741) scale(-1, 1) translate(-322.883709, -159.740741) " x="320" y="154" width="5.76741703" height="11.4814815"></rect>
                <rect id="Rectangle-59-Copy-40" stroke="#0A76E8" sketch:type="MSShapeGroup" transform="translate(352.883709, 178.740741) scale(-1, 1) translate(-352.883709, -178.740741) " x="350" y="173" width="5.76741703" height="11.4814815"></rect>
                <rect id="Rectangle-59-Copy-39" stroke="#0A76E8" sketch:type="MSShapeGroup" transform="translate(342.883709, 178.740741) scale(-1, 1) translate(-342.883709, -178.740741) " x="340" y="173" width="5.76741703" height="11.4814815"></rect>
                <rect id="Rectangle-59-Copy-38" stroke="#0A76E8" sketch:type="MSShapeGroup" transform="translate(332.883709, 178.740741) scale(-1, 1) translate(-332.883709, -178.740741) " x="330" y="173" width="5.76741703" height="11.4814815"></rect>
                <rect id="Rectangle-59-Copy-37" stroke="#0A76E8" sketch:type="MSShapeGroup" transform="translate(322.883709, 178.740741) scale(-1, 1) translate(-322.883709, -178.740741) " x="320" y="173" width="5.76741703" height="11.4814815"></rect>
                <rect id="Rectangle-59-Copy-16" stroke="#0A76E8" sketch:type="MSShapeGroup" transform="translate(386.101674, 210.648148) scale(-1, 1) translate(-386.101674, -210.648148) " x="383.217965" y="204.907407" width="5.76741703" height="11.4814815"></rect>
                <rect id="Rectangle-59-Copy-14" stroke="#0A76E8" sketch:type="MSShapeGroup" x="383.217965" y="163.287037" width="5.76741703" height="25"></rect>
                <path d="M394.752799,222.12963 L394.752799,204.907407 L394.752799,204.907407 L416.380613,204.907407 L416.380613,222.12963" id="Rectangle-69" stroke="#0A76E8" sketch:type="MSShapeGroup" transform="translate(405.566706, 213.518519) scale(-1, 1) translate(-405.566706, -213.518519) "></path>
                <path d="M414.938759,200.944855 C412.943049,197.790149 409.588703,196.104516 405.566706,196.104516 C401.741814,196.104516 398.233202,198.045782 396.194654,200.944855" id="Oval-14" stroke="#0A76E8" stroke-linecap="round" stroke-linejoin="round" sketch:type="MSShapeGroup" transform="translate(405.566706, 198.524685) scale(-1, 1) translate(-405.566706, -198.524685) "></path>
                <rect id="Rectangle-76" stroke="#0A76E8" sketch:type="MSShapeGroup" transform="translate(358.706443, 213.518519) scale(-1, 1) translate(-358.706443, -213.518519) " x="354.38088" y="204.907407" width="8.65112554" height="17.2222222"></rect>
                <rect id="Rectangle-76-Copy-2" stroke="#0A76E8" sketch:type="MSShapeGroup" transform="translate(337.357702, 213.518519) scale(-1, 1) translate(-337.357702, -213.518519) " x="326.543795" y="204.907407" width="21.6278139" height="17.2222222"></rect>
                <rect id="Rectangle-76-Copy-3" stroke="#0A76E8" sketch:type="MSShapeGroup" transform="translate(315.450815, 213.518519) scale(-1, 1) translate(-315.450815, -213.518519) " x="311.125253" y="204.907407" width="8.65112554" height="17.2222222"></rect>
                <path d="M434,130.277778 L434,125.964768 L434,125.964768 L377.008694,125.964768 L377.008694,130.277778" id="Rectangle-84" stroke="#0A76E8" sketch:type="MSShapeGroup"></path>
                <g id="Group" transform="translate(279.500000, 202.500000) scale(-1, 1) translate(-279.500000, -202.500000) translate(265.000000, 182.000000)" stroke="#0A76E8" sketch:type="MSShapeGroup">
                    <path d="M13.6181753,25.6718756 L7.49217301,19.5681818" id="Path-172" stroke-width="2" stroke-linecap="round" stroke-linejoin="round"></path>
                    <path d="M14.6227268,32.1900986 C14.6227268,32.1900986 -9.37705345,28.0932941 5.39782899,5.62985951 C11.1888699,-3.1747228 19.439355,0.263291462 21.8313614,4.06082622 C23.6682658,6.97708434 22.9599081,10.3174097 25.8686351,13.2689241 C36.0053963,23.5547972 14.6227268,32.1900986 14.6227268,32.1900986 Z" id="Path-174"></path>
                    <path d="M13.7768614,9.33379723 L13.7768614,39.269826" id="Path-171" stroke-width="2" stroke-linecap="round" stroke-linejoin="round"></path>
                    <path d="M14.9677419,20.0809666 L21.0937442,13.9772727" id="Path-172-Copy" stroke-width="2" stroke-linecap="round" stroke-linejoin="round"></path>
                </g>
                <path d="M383.754883,170.643066 L388.731445,170.643066" id="Path-395" stroke="#0A76E8" sketch:type="MSShapeGroup"></path>
                <path d="M413.496905,171 L418.473467,171" id="Path-395-Copy-4" stroke="#0A76E8" sketch:type="MSShapeGroup"></path>
                <path d="M394,171 L398.976562,171" id="Path-395-Copy-2" stroke="#0A76E8" sketch:type="MSShapeGroup"></path>
                <path d="M423.496905,171 L428.473467,171" id="Path-395-Copy-5" stroke="#0A76E8" sketch:type="MSShapeGroup"></path>
                <path d="M384,180 L388.976562,180" id="Path-395-Copy" stroke="#0A76E8" sketch:type="MSShapeGroup"></path>
                <path d="M413.496905,180 L418.473467,180" id="Path-395-Copy-6" stroke="#0A76E8" sketch:type="MSShapeGroup"></path>
                <path d="M394,180 L398.976562,180" id="Path-395-Copy-3" stroke="#0A76E8" sketch:type="MSShapeGroup"></path>
                <path d="M423.496905,180 L428.473467,180" id="Path-395-Copy-7" stroke="#0A76E8" sketch:type="MSShapeGroup"></path>
                <path d="M405.602539,205.128906 L405.602539,222.120853" id="Path-403" stroke="#0A76E8" sketch:type="MSShapeGroup"></path>
                <path d="M375.5,125.69873 L435.5,125.69873" id="Path-399" stroke="#0A76E8" sketch:type="MSShapeGroup"></path>
                <path d="M380.01416,126.230957 L380.01416,129.662875" id="Path-400" stroke="#0A76E8" sketch:type="MSShapeGroup"></path>
                <path d="M383,126.230957 L383,129.662875" id="Path-400-Copy-2" stroke="#0A76E8" sketch:type="MSShapeGroup"></path>
                <path d="M386,126.230957 L386,129.662875" id="Path-400-Copy-4" stroke="#0A76E8" sketch:type="MSShapeGroup"></path>
                <path d="M389,126.230957 L389,129.662875" id="Path-400-Copy-5" stroke="#0A76E8" sketch:type="MSShapeGroup"></path>
                <path d="M392,126.230957 L392,129.662875" id="Path-400-Copy-6" stroke="#0A76E8" sketch:type="MSShapeGroup"></path>
                <path d="M395,126.230957 L395,129.662875" id="Path-400-Copy-8" stroke="#0A76E8" sketch:type="MSShapeGroup"></path>
                <path d="M398,126.230957 L398,129.662875" id="Path-400-Copy-10" stroke="#0A76E8" sketch:type="MSShapeGroup"></path>
                <path d="M401,126.230957 L401,129.662875" id="Path-400-Copy-12" stroke="#0A76E8" sketch:type="MSShapeGroup"></path>
                <path d="M404,126.230957 L404,129.662875" id="Path-400-Copy-14" stroke="#0A76E8" sketch:type="MSShapeGroup"></path>
                <path d="M407,126.230957 L407,129.662875" id="Path-400-Copy-16" stroke="#0A76E8" sketch:type="MSShapeGroup"></path>
                <path d="M410,126.230957 L410,129.662875" id="Path-400-Copy-18" stroke="#0A76E8" sketch:type="MSShapeGroup"></path>
                <path d="M413,126.230957 L413,129.662875" id="Path-400-Copy-20" stroke="#0A76E8" sketch:type="MSShapeGroup"></path>
                <path d="M416,126.230957 L416,129.662875" id="Path-400-Copy-22" stroke="#0A76E8" sketch:type="MSShapeGroup"></path>
                <path d="M419,126.230957 L419,129.662875" id="Path-400-Copy-24" stroke="#0A76E8" sketch:type="MSShapeGroup"></path>
                <path d="M422,126.230957 L422,129.662875" id="Path-400-Copy-26" stroke="#0A76E8" sketch:type="MSShapeGroup"></path>
                <path d="M425,126.230957 L425,129.662875" id="Path-400-Copy-28" stroke="#0A76E8" sketch:type="MSShapeGroup"></path>
                <path d="M428,126.230957 L428,129.662875" id="Path-400-Copy-30" stroke="#0A76E8" sketch:type="MSShapeGroup"></path>
                <path d="M431,126.230957 L431,129.662875" id="Path-400-Copy-32" stroke="#0A76E8" sketch:type="MSShapeGroup"></path>
                <g transform="translate(0.000000, 221.000000)"></g>
                <path d="M1.00182337,222.847222 L461.001827,222.847222" id="Path-168" stroke="#0A76E8" stroke-width="3" stroke-linecap="round" stroke-linejoin="round" sketch:type="MSShapeGroup" transform="translate(230.750912, 223.194444) scale(-1, 1) translate(-230.750912, -223.194444) "></path>
                <path d="M126,178.414419 C126,178.414419 154.418625,160 194.943787,160 C235.468948,160 263.887577,178.414419 263.887577,178.414419 L263.887577,181.751085 L126,181.751085 L126,178.414419 Z" id="Rectangle-85" stroke="#0A76E8" sketch:type="MSShapeGroup" transform="translate(194.943789, 170.875543) scale(-1, 1) translate(-194.943789, -170.875543) "></path>
                <rect id="Rectangle-88" stroke="#0A76E8" sketch:type="MSShapeGroup" transform="translate(192.067374, 221.129630) scale(-1, 1) translate(-192.067374, -221.129630) " x="162.567374" y="219.12963" width="59" height="4"></rect>
                <rect id="Rectangle-103" stroke="#0A76E8" stroke-width="2" sketch:type="MSShapeGroup" transform="translate(54.000000, 212.000000) scale(-1, 1) translate(-54.000000, -212.000000) " x="18" y="201" width="72" height="22"></rect>
                <path d="M179,204 L179,219.567572" id="Path" stroke="#0A76E8" sketch:type="MSShapeGroup"></path>
                <path d="M75,222.108243 L75,213.924679 L75,213.924679 C75,212.309423 76.3315945,211 78,211 L78,211 C79.6568542,211 81,212.320183 81,213.924679 L81,222.108243" id="Rectangle-104" stroke="#0A76E8" sketch:type="MSShapeGroup" transform="translate(78.000000, 218.016461) scale(-1, 1) translate(-78.000000, -218.016461) "></path>
                <path d="M59,222.108243 L59,213.924679 L59,213.924679 C59,212.309423 60.3315945,211 62,211 L62,211 C63.6568542,211 65,212.320183 65,213.924679 L65,222.108243" id="Rectangle-104-Copy-4" stroke="#0A76E8" sketch:type="MSShapeGroup" transform="translate(62.000000, 218.016461) scale(-1, 1) translate(-62.000000, -218.016461) "></path>
                <path d="M84,213.972248 C84,210.673866 81.3137085,208 78,208 C74.6862915,208 72,210.673866 72,213.972248" id="Oval-14" stroke="#0A76E8" stroke-linecap="round" stroke-linejoin="round" sketch:type="MSShapeGroup" transform="translate(78.000000, 213.972248) scale(-1, 1) translate(-78.000000, -213.972248) "></path>
                <path d="M68,213.972248 C68,210.673866 65.3137085,208 62,208 C58.6862915,208 56,210.673866 56,213.972248" id="Oval-14-Copy" stroke="#0A76E8" stroke-linecap="round" stroke-linejoin="round" sketch:type="MSShapeGroup" transform="translate(62.000000, 213.972248) scale(-1, 1) translate(-62.000000, -213.972248) "></path>
                <path d="M43,222.108243 L43,213.924679 L43,213.924679 C43,212.309423 44.3315945,211 46,211 L46,211 C47.6568542,211 49,212.320183 49,213.924679 L49,222.108243" id="Rectangle-104-Copy-5" stroke="#0A76E8" sketch:type="MSShapeGroup" transform="translate(46.000000, 218.016461) scale(-1, 1) translate(-46.000000, -218.016461) "></path>
                <path d="M52,213.972248 C52,210.673866 49.3137085,208 46,208 C42.6862915,208 40,210.673866 40,213.972248" id="Oval-14-Copy-2" stroke="#0A76E8" stroke-linecap="round" stroke-linejoin="round" sketch:type="MSShapeGroup" transform="translate(46.000000, 213.972248) scale(-1, 1) translate(-46.000000, -213.972248) "></path>
                <path d="M27,222.108243 L27,213.924679 L27,213.924679 C27,212.309423 28.3315945,211 30,211 L30,211 C31.6568542,211 33,212.320183 33,213.924679 L33,222.108243" id="Rectangle-104-Copy-6" stroke="#0A76E8" sketch:type="MSShapeGroup" transform="translate(30.000000, 218.016461) scale(-1, 1) translate(-30.000000, -218.016461) "></path>
                <path d="M36,213.972248 C36,210.673866 33.3137085,208 30,208 C26.6862915,208 24,210.673866 24,213.972248" id="Oval-14-Copy-3" stroke="#0A76E8" stroke-linecap="round" stroke-linejoin="round" sketch:type="MSShapeGroup" transform="translate(30.000000, 213.972248) scale(-1, 1) translate(-30.000000, -213.972248) "></path>
                <path d="M79.9485728,202.301613 C84.0752838,189.672376 83.9851939,173.338556 83.9851939,155.5 C83.9851939,115.459356 70.4857885,83 55.0218155,83 C39.5578425,83 26.0364639,115.459356 26.0364639,155.5 C26.0364639,173.325181 26.966084,189.676296 31.0872452,202.301613" id="Oval-13" stroke="#0A76E8" stroke-width="2" stroke-linejoin="round" sketch:type="MSShapeGroup" transform="translate(55.010908, 142.650806) scale(-1, 1) translate(-55.010908, -142.650806) "></path>
                <path d="M243.971677,177.559814 C237.58625,170.155147 217.76738,165 194.5,165 C171.779029,165 152.49463,170.142658 145.65537,177.279348" id="Oval-12" stroke="#0A76E8" stroke-linecap="round" stroke-linejoin="round" sketch:type="MSShapeGroup"></path>
                <path d="M38.6796875,96 L71.5869141,96" id="Path-315" stroke="#0A76E8" sketch:type="MSShapeGroup"></path>
                <path d="M39,111 L71.9072266,111" id="Path-315-Copy-3" stroke="#0A76E8" sketch:type="MSShapeGroup"></path>
                <path d="M32.5,111 L77.5,111" id="Path-315-Copy" stroke="#0A76E8" sketch:type="MSShapeGroup"></path>
                <path d="M32.5,111 L77.5,111" id="Path-315-Copy-2" stroke="#0A76E8" sketch:type="MSShapeGroup"></path>
                <path d="M28.5,126 L81.5,126" id="Path-315-Copy-4" stroke="#0A76E8" sketch:type="MSShapeGroup"></path>
                <path d="M26.5,141 L83.5,141" id="Path-315-Copy-5" stroke="#0A76E8" sketch:type="MSShapeGroup"></path>
                <path d="M26.5,156 L84.5,156" id="Path-315-Copy-7" stroke="#0A76E8" sketch:type="MSShapeGroup"></path>
                <path d="M26.5,171 L83.5,171" id="Path-315-Copy-9" stroke="#0A76E8" sketch:type="MSShapeGroup"></path>
                <path d="M27.5,186 L82.5,186" id="Path-315-Copy-11" stroke="#0A76E8" sketch:type="MSShapeGroup"></path>
                <path d="M61.9077148,84.8745117 L27.0048828,137.865234" id="Path-326" stroke="#0A76E8" sketch:type="MSShapeGroup"></path>
                <path d="M70.5,95.5 L26.5,161.5" id="Path-326-Copy" stroke="#0A76E8" sketch:type="MSShapeGroup"></path>
                <path d="M77.5,109.5 L26.5,185.5" id="Path-326-Copy-2" stroke="#0A76E8" sketch:type="MSShapeGroup"></path>
                <path d="M81.5,128.5 L32.5,202.5" id="Path-326-Copy-3" stroke="#0A76E8" sketch:type="MSShapeGroup"></path>
                <path d="M83.5,153.5 L50.5,202.5" id="Path-326-Copy-4" stroke="#0A76E8" sketch:type="MSShapeGroup"></path>
                <path d="M83.5,181.5 L68.5,202.5" id="Path-326-Copy-5" stroke="#0A76E8" sketch:type="MSShapeGroup"></path>
                <path d="M179.5,201.5 L204.5,201.5" id="Path-352" stroke="#0A76E8" sketch:type="MSShapeGroup"></path>
                <path d="M196,201 C196,198.790861 194.209139,197 192,197 C189.790861,197 188,198.790861 188,201" id="Oval-12" stroke="#0A76E8" sketch:type="MSShapeGroup"></path>
                <path d="M205,204 C205,196.820298 199.179702,191 192,191 C184.820298,191 179,196.820298 179,204" id="Oval-12" stroke="#0A76E8" sketch:type="MSShapeGroup"></path>
                <path d="M192,191 L192,201.310396" id="Path-356" stroke="#0A76E8" sketch:type="MSShapeGroup"></path>
                <path d="M183.622314,194.215088 L192.031982,201.469727" id="Path-357" stroke="#0A76E8" sketch:type="MSShapeGroup"></path>
                <path d="M192,194 L200.409668,201.254639" id="Path-357-Copy" stroke="#0A76E8" sketch:type="MSShapeGroup" transform="translate(196.204834, 197.627319) scale(-1, 1) translate(-196.204834, -197.627319) "></path>
                <g id="Group" transform="translate(154.000000, 165.000000)" stroke="#0A76E8" sketch:type="MSShapeGroup">
                    <path d="M30.3333333,0.615384615 L30.3333333,15.3215744" id="Path-362-Copy-2"></path>
                    <path d="M20.5,1.84615385 L20.5,15.3215744" id="Path-362-Copy-3"></path>
                    <path d="M10.5,3.5 L10.5,15.3230767" id="Path-362-Copy-4"></path>
                    <path d="M0.5,6.81514376 L0.5,15.3213313" id="Path-362-Copy-5"></path>
                </g>
                <path d="M192.067383,201.918701 L192.067383,219.127123" id="Path-359" stroke="#0A76E8" sketch:type="MSShapeGroup"></path>
                <path d="M205,219.567572 L205,204" id="Path" stroke="#0A76E8" sketch:type="MSShapeGroup"></path>
                <path d="M137,221.12963 L137,180.944444 L249,180.944444 L249,221.12963" id="Rectangle-85" stroke="#0A76E8" stroke-width="2" sketch:type="MSShapeGroup" transform="translate(193.000000, 201.037037) scale(-1, 1) translate(-193.000000, -201.037037) "></path>
                <path d="M156.800224,220.135307 L156.800224,199.55356 C156.800224,195.950428 154.211582,193.029513 151.032807,193.029513 C147.84755,193.029513 145.26539,195.955111 145.26539,199.55356 L145.26539,220.135307" id="Rectangle-104-Copy-7" stroke="#0A76E8" sketch:type="MSShapeGroup"></path>
            </g>
        </g>
    </g>
</svg>