<?xml version="1.0" encoding="UTF-8" standalone="no"?>
<svg width="462px" height="226px" viewBox="0 0 462 226" version="1.1" xmlns="http://www.w3.org/2000/svg" xmlns:xlink="http://www.w3.org/1999/xlink" xmlns:sketch="http://www.bohemiancoding.com/sketch/ns">
    <!-- Generator: Sketch 3.4.2 (15857) - http://www.bohemiancoding.com/sketch -->
    <title>Artboard 2</title>
    <desc>Created with Sketch.</desc>
    <defs></defs>
    <g id="Welcome" stroke="none" stroke-width="1" fill="none" fill-rule="evenodd" sketch:type="MSPage">
        <g id="Artboard-2" sketch:type="MSArtboardGroup" stroke="#0A76E8">
            <g id="Icon" sketch:type="MSLayerGroup" transform="translate(0.000000, 70.000000)">
                <path d="M1.50000006,152.847222 L461.500004,152.847222" id="Path-168" stroke-width="3" stroke-linecap="round" stroke-linejoin="round" sketch:type="MSShapeGroup"></path>
                <path d="M49.9915729,153.564815 L49.9915729,60.2777778 L49.9915729,60.2777778 L116.316869,60.2777778 L116.316869,153.564815" id="Rectangle-58" stroke-width="2" stroke-linecap="round" stroke-linejoin="round" sketch:type="MSShapeGroup"></path>
                <path d="M116.316869,153.564815 L116.316869,126.296296 L116.316869,126.296296 L185.525873,126.296296 L185.525873,153.564815" id="Rectangle-59" stroke-width="2" sketch:type="MSShapeGroup"></path>
                <rect id="Rectangle-58" stroke-width="2" sketch:type="MSShapeGroup" x="124.967994" y="0" width="51.9067532" height="126.296296"></rect>
                <g id="Group" transform="translate(5.526674, 104.768519)" sketch:type="MSShapeGroup">
                    <path d="M15.1394697,14.3438366 L15.1394697,46.4703065" id="Path-171" stroke-width="2" stroke-linecap="round" stroke-linejoin="round"></path>
                    <path d="M14.5634986,28.4245074 L8.01501337,21.8742018" id="Path-172" stroke-width="2" stroke-linecap="round" stroke-linejoin="round"></path>
                    <path d="M15.1394697,25.7520936 L21.6879549,19.201788" id="Path-172-Copy" stroke-width="2" stroke-linecap="round" stroke-linejoin="round"></path>
                    <path d="M15.5810797,37.4006597 C15.5810797,37.4006597 -10.0738578,32.7359088 5.71998203,7.15833386 C11.9104051,-2.8668412 20.7298891,1.04779025 23.2868615,5.37178307 C25.2504489,8.69232653 24.493239,12.4957263 27.6025679,15.8564137 C38.4384161,27.5682332 15.5810797,37.4006597 15.5810797,37.4006597 Z" id="Path-174"></path>
                </g>
                <g id="Group-Copy-2" transform="translate(348.432092, 123.425926)" sketch:type="MSShapeGroup">
                    <path d="M8.94605027,8.43755094 L8.94605028,27.3354744" id="Path-171" stroke-width="1.2" stroke-linecap="round" stroke-linejoin="round"></path>
                    <path d="M8.60570372,16.7202984 L4.73614426,12.8671775" id="Path-172" stroke-width="1.2" stroke-linecap="round" stroke-linejoin="round"></path>
                    <path d="M8.94605028,15.1482903 L12.8156097,11.2951694" id="Path-172-Copy" stroke-width="1.2" stroke-linecap="round" stroke-linejoin="round"></path>
                    <path d="M9.20700162,22.000388 C9.20700162,22.000388 -5.95273417,19.256417 3.37998938,4.21078463 C7.03796663,-1.68637718 12.2494799,0.616347206 13.7604182,3.1598724 C14.9207198,5.11313325 14.4732776,7.35042724 16.3106083,9.32730218 C22.7136095,16.2166077 9.20700162,22.000388 9.20700162,22.000388 Z" id="Path-174" stroke-width="0.6"></path>
                </g>
                <path d="M57.2008442,83.2407407 L109.107597,83.2407407" id="Path-175-Copy" sketch:type="MSShapeGroup"></path>
                <path d="M57.2008442,123.425926 L109.107597,123.425926" id="Path-175-Copy-3" sketch:type="MSShapeGroup"></path>
                <path d="M57.2008442,88.9814815 L109.107597,88.9814815" id="Path-175-Copy-2" sketch:type="MSShapeGroup"></path>
                <path d="M57.2008442,130.601852 L70.8984596,130.601852" id="Path-175-Copy-5" sketch:type="MSShapeGroup"></path>
                <path d="M94.6890548,130.601852 L108.38667,130.601852" id="Path-175-Copy-6" sketch:type="MSShapeGroup"></path>
                <rect id="Rectangle-59" sketch:type="MSShapeGroup" x="58.6426984" y="67.4537037" width="5.76741703" height="11.4814815"></rect>
                <rect id="Rectangle-59-Copy-5" sketch:type="MSShapeGroup" x="58.6426984" y="109.074074" width="5.76741703" height="11.4814815"></rect>
                <rect id="Rectangle-59-Copy-15" sketch:type="MSShapeGroup" x="58.6426984" y="134.907407" width="5.76741703" height="11.4814815"></rect>
                <rect id="Rectangle-59-Copy-10" sketch:type="MSShapeGroup" x="58.6426984" y="93.287037" width="5.76741703" height="11.4814815"></rect>
                <rect id="Rectangle-59-Copy" sketch:type="MSShapeGroup" x="68.7356782" y="67.4537037" width="5.76741703" height="11.4814815"></rect>
                <rect id="Rectangle-59-Copy-6" sketch:type="MSShapeGroup" x="68.7356782" y="109.074074" width="5.76741703" height="11.4814815"></rect>
                <rect id="Rectangle-59-Copy-11" sketch:type="MSShapeGroup" x="68.7356782" y="93.287037" width="5.76741703" height="11.4814815"></rect>
                <rect id="Rectangle-59-Copy-2" sketch:type="MSShapeGroup" x="78.828658" y="67.4537037" width="5.76741703" height="11.4814815"></rect>
                <rect id="Rectangle-59-Copy-7" sketch:type="MSShapeGroup" x="78.828658" y="109.074074" width="5.76741703" height="11.4814815"></rect>
                <rect id="Rectangle-59-Copy-18" sketch:type="MSShapeGroup" x="139.386537" y="109.074074" width="5.76741703" height="11.4814815"></rect>
                <rect id="Rectangle-59-Copy-21" sketch:type="MSShapeGroup" x="124.967994" y="109.074074" width="8.65112554" height="11.4814815"></rect>
                <rect id="Rectangle-59-Copy-12" sketch:type="MSShapeGroup" x="78.828658" y="93.287037" width="5.76741703" height="11.4814815"></rect>
                <rect id="Rectangle-59-Copy-3" sketch:type="MSShapeGroup" x="88.9216378" y="67.4537037" width="5.76741703" height="11.4814815"></rect>
                <rect id="Rectangle-59-Copy-8" sketch:type="MSShapeGroup" x="88.9216378" y="109.074074" width="5.76741703" height="11.4814815"></rect>
                <rect id="Rectangle-59-Copy-19" sketch:type="MSShapeGroup" x="150.921371" y="109.074074" width="5.76741703" height="11.4814815"></rect>
                <rect id="Rectangle-59-Copy-13" sketch:type="MSShapeGroup" x="88.9216378" y="93.287037" width="5.76741703" height="11.4814815"></rect>
                <rect id="Rectangle-59-Copy-4" sketch:type="MSShapeGroup" x="99.0146176" y="67.4537037" width="5.76741703" height="11.4814815"></rect>
                <rect id="Rectangle-59-Copy-9" sketch:type="MSShapeGroup" x="99.0146176" y="109.074074" width="5.76741703" height="11.4814815"></rect>
                <rect id="Rectangle-59-Copy-20" sketch:type="MSShapeGroup" x="162.456205" y="109.074074" width="8.65112554" height="11.4814815"></rect>
                <rect id="Rectangle-59-Copy-16" sketch:type="MSShapeGroup" x="99.0146176" y="134.907407" width="5.76741703" height="11.4814815"></rect>
                <rect id="Rectangle-59-Copy-14" sketch:type="MSShapeGroup" x="99.0146176" y="93.287037" width="5.76741703" height="11.4814815"></rect>
                <path d="M71.6193867,152.12963 L71.6193867,134.907407 L71.6193867,134.907407 L93.2472006,134.907407 L93.2472006,152.12963" id="Rectangle-69" sketch:type="MSShapeGroup"></path>
                <path d="M91.8053463,130.944855 C89.8096368,127.790149 86.4552905,126.104516 82.4332937,126.104516 C78.6084014,126.104516 75.0997892,128.045782 73.061241,130.944855" id="Oval-14" stroke-linecap="round" stroke-linejoin="round" sketch:type="MSShapeGroup"></path>
                <rect id="Rectangle-76" sketch:type="MSShapeGroup" x="124.967994" y="134.907407" width="8.65112554" height="17.2222222"></rect>
                <rect id="Rectangle-76-Copy" sketch:type="MSShapeGroup" x="139.386537" y="134.907407" width="8.65112554" height="17.2222222"></rect>
                <rect id="Rectangle-76-Copy-2" sketch:type="MSShapeGroup" x="153.805079" y="134.907407" width="8.65112554" height="17.2222222"></rect>
                <rect id="Rectangle-76-Copy-3" sketch:type="MSShapeGroup" x="168.223622" y="134.907407" width="8.65112554" height="17.2222222"></rect>
                <path d="M177.316602,14.3518519 L134.849488,14.3518519 L134.849488,5.74074074 L134.849488,5.74074074 L177.316602,5.74074074" id="Rectangle-80" sketch:type="MSShapeGroup"></path>
                <path d="M177.316602,28.7037037 L134.849488,28.7037037 L134.849488,20.0925926 L134.849488,20.0925926 L177.316602,20.0925926" id="Rectangle-80-Copy" sketch:type="MSShapeGroup"></path>
                <path d="M177.316602,43.0555556 L134.849488,43.0555556 L134.849488,34.4444444 L134.849488,34.4444444 L177.316602,34.4444444" id="Rectangle-80-Copy-2" sketch:type="MSShapeGroup"></path>
                <path d="M177.316602,57.4074074 L134.849488,57.4074074 L134.849488,48.7962963 L134.849488,48.7962963 L177.316602,48.7962963" id="Rectangle-80-Copy-3" sketch:type="MSShapeGroup"></path>
                <path d="M177.316602,71.7592593 L134.849488,71.7592593 L134.849488,63.1481481 L134.849488,63.1481481 L177.316602,63.1481481" id="Rectangle-80-Copy-4" sketch:type="MSShapeGroup"></path>
                <path d="M177.316602,86.1111111 L134.849488,86.1111111 L134.849488,77.5 L134.849488,77.5 L177.316602,77.5" id="Rectangle-80-Copy-5" sketch:type="MSShapeGroup"></path>
                <path d="M177.316602,100.462963 L134.849488,100.462963 L134.849488,91.8518519 L134.849488,91.8518519 L177.316602,91.8518519" id="Rectangle-80-Copy-6" sketch:type="MSShapeGroup"></path>
                <rect id="Rectangle-84" sketch:type="MSShapeGroup" x="54.3171356" y="51.6666667" width="57.6741703" height="8.61111111"></rect>
                <path d="M59.1383358,51.0009314 C59.1383358,51.0009314 71.3279181,39.5727087 110.524107,39.5727087" id="Path-189" sketch:type="MSShapeGroup"></path>
                <path d="M70.9266208,45.153673 L70.9266208,51.2964399" id="Path-190" sketch:type="MSShapeGroup"></path>
                <path d="M80.2705123,42.337963 L80.2705123,50.6335077" id="Path-190-Copy" sketch:type="MSShapeGroup"></path>
                <path d="M88.9216378,40.9027778 L88.9216378,50.6335077" id="Path-190-Copy-2" sketch:type="MSShapeGroup"></path>
                <path d="M97.5727633,39.4675926 L97.5727633,50.6335077" id="Path-190-Copy-3" sketch:type="MSShapeGroup"></path>
                <path d="M106.223889,39.4675926 L106.223889,50.6335077" id="Path-190-Copy-4" sketch:type="MSShapeGroup"></path>
                <path d="M195.618853,150.694444 L195.618853,111.944444 L195.618853,111.944444 L339.804278,111.944444 L339.804278,150.694444" id="Rectangle-85" stroke-width="2" sketch:type="MSShapeGroup"></path>
                <rect id="Rectangle-95" fill="#D8D8D8" sketch:type="MSShapeGroup" x="207.153687" y="119.12037" width="17.3022511" height="1.43518519"></rect>
                <rect id="Rectangle-95-Copy" fill="#D8D8D8" sketch:type="MSShapeGroup" x="233.107063" y="119.12037" width="17.3022511" height="1.43518519"></rect>
                <rect id="Rectangle-85" sketch:type="MSShapeGroup" x="186.967727" y="100.462963" width="161.487677" height="11.4814815"></rect>
                <rect id="Rectangle-86" sketch:type="MSShapeGroup" x="195.618853" y="97.5925926" width="142.743571" height="4.30555556"></rect>
                <path d="M326.82759,97.8872555 C315.832732,76.2860002 293.489262,61.501767 267.714411,61.501767 C241.935112,61.501767 219.588379,76.2911022 208.595541,97.8984368" id="Oval-14" sketch:type="MSShapeGroup"></path>
                <rect id="Rectangle-87" sketch:type="MSShapeGroup" x="264.827857" y="58.8425926" width="7.20927128" height="2.87037037"></rect>
                <path d="M268.47051,59.467683 L268.47051,43.7731482" id="Path-197" stroke-linecap="round" stroke-linejoin="round" sketch:type="MSShapeGroup"></path>
                <rect id="Rectangle-88" sketch:type="MSShapeGroup" x="199.944416" y="149.259259" width="135.5343" height="2.87037037"></rect>
                <g id="Group" transform="translate(211.479250, 123.425926)" sketch:type="MSShapeGroup">
                    <rect id="Rectangle-89" x="0" y="0" width="8.65112554" height="25.8333333"></rect>
                    <rect id="Rectangle-89-Copy" x="25.9533766" y="0" width="8.65112554" height="25.8333333"></rect>
                    <rect id="Rectangle-89-Copy-2" x="51.9067532" y="0" width="8.65112554" height="25.8333333"></rect>
                    <rect id="Rectangle-89-Copy-3" x="77.8601299" y="0" width="8.65112554" height="25.8333333"></rect>
                    <rect id="Rectangle-89-Copy-4" x="103.813506" y="0" width="8.65112554" height="25.8333333"></rect>
                </g>
                <path d="M203.855304,118.581475 L332.293752,118.581475" id="Path-198" sketch:type="MSShapeGroup"></path>
                <path d="M208.595541,120.555556 L223.014084,120.555556 L221.572229,124.861111 L210.037395,124.861111 L208.595541,120.555556 Z" id="Rectangle-94" sketch:type="MSShapeGroup"></path>
                <path d="M234.548918,120.555556 L248.96746,120.555556 L247.525606,124.861111 L235.990772,124.861111 L234.548918,120.555556 Z" id="Rectangle-94-Copy" sketch:type="MSShapeGroup"></path>
                <rect id="Rectangle-95-Copy-2" fill="#D8D8D8" sketch:type="MSShapeGroup" x="259.06044" y="119.12037" width="17.3022511" height="1.43518519"></rect>
                <path d="M260.502294,120.555556 L274.920837,120.555556 L273.478983,124.861111 L261.944149,124.861111 L260.502294,120.555556 Z" id="Rectangle-94-Copy-2" sketch:type="MSShapeGroup"></path>
                <rect id="Rectangle-95-Copy-3" fill="#D8D8D8" sketch:type="MSShapeGroup" x="285.013817" y="119.12037" width="17.3022511" height="1.43518519"></rect>
                <path d="M286.455671,120.555556 L300.874214,120.555556 L299.432359,124.861111 L287.897525,124.861111 L286.455671,120.555556 Z" id="Rectangle-94-Copy-3" sketch:type="MSShapeGroup"></path>
                <rect id="Rectangle-95-Copy-4" fill="#D8D8D8" sketch:type="MSShapeGroup" x="310.967193" y="119.12037" width="17.3022511" height="1.43518519"></rect>
                <path d="M312.409048,120.555556 L326.82759,120.555556 L325.385736,124.861111 L313.850902,124.861111 L312.409048,120.555556 Z" id="Rectangle-94-Copy-4" sketch:type="MSShapeGroup"></path>
                <path d="M223.014084,149.110097 L223.014084,135.05657 L223.014084,135.05657 C223.014084,132.596297 225.602726,130.601852 228.781501,130.601852 L228.781501,130.601852 C231.966757,130.601852 234.548918,132.599494 234.548918,135.05657 L234.548918,149.110097" id="Rectangle-104" sketch:type="MSShapeGroup"></path>
                <path d="M248.96746,149.110097 L248.96746,135.05657 L248.96746,135.05657 C248.96746,132.596297 251.556102,130.601852 254.734877,130.601852 L254.734877,130.601852 C257.920134,130.601852 260.502294,132.599494 260.502294,135.05657 L260.502294,149.110097" id="Rectangle-104-Copy" sketch:type="MSShapeGroup"></path>
                <path d="M274.920837,149.110097 L274.920837,135.05657 L274.920837,135.05657 C274.920837,132.596297 277.509479,130.601852 280.688254,130.601852 L280.688254,130.601852 C283.87351,130.601852 286.455671,132.599494 286.455671,135.05657 L286.455671,149.110097" id="Rectangle-104-Copy-2" sketch:type="MSShapeGroup"></path>
                <path d="M300.874214,149.110097 L300.874214,135.05657 L300.874214,135.05657 C300.874214,132.596297 303.462855,130.601852 306.641631,130.601852 L306.641631,130.601852 C309.826887,130.601852 312.409048,132.599494 312.409048,135.05657 L312.409048,149.110097" id="Rectangle-104-Copy-3" sketch:type="MSShapeGroup"></path>
                <g id="Rectangle-104-+-Oval-14" transform="translate(223.014084, 84.675926)" sketch:type="MSShapeGroup">
                    <path d="M2.56329646,13.6596833 L2.56329646,5.47611915 L2.56329646,5.47611915 C2.56329646,3.86086364 3.98549286,2.55144033 5.76741703,2.55144033 L5.76741703,2.55144033 C7.53700396,2.55144033 8.9715376,3.87162354 8.9715376,5.47611915 L8.9715376,13.6596833" id="Rectangle-104"></path>
                    <path d="M11.5348341,5.74074074 C11.5348341,2.57021718 8.9526735,0 5.76741703,0 C2.58216056,0 0,2.57021718 0,5.74074074" id="Oval-14" stroke-linecap="round" stroke-linejoin="round"></path>
                </g>
                <g id="Rectangle-104-+-Oval-14-Copy" transform="translate(248.967460, 84.675926)" sketch:type="MSShapeGroup">
                    <path d="M2.56329646,13.6596833 L2.56329646,5.47611915 L2.56329646,5.47611915 C2.56329646,3.86086364 3.98549286,2.55144033 5.76741703,2.55144033 L5.76741703,2.55144033 C7.53700396,2.55144033 8.9715376,3.87162354 8.9715376,5.47611915 L8.9715376,13.6596833" id="Rectangle-104"></path>
                    <path d="M11.5348341,5.74074074 C11.5348341,2.57021718 8.9526735,0 5.76741703,0 C2.58216056,0 0,2.57021718 0,5.74074074" id="Oval-14" stroke-linecap="round" stroke-linejoin="round"></path>
                </g>
                <g id="Rectangle-104-+-Oval-14-Copy-2" transform="translate(274.920837, 84.675926)" sketch:type="MSShapeGroup">
                    <path d="M2.56329646,13.6596833 L2.56329646,5.47611915 L2.56329646,5.47611915 C2.56329646,3.86086364 3.98549286,2.55144033 5.76741703,2.55144033 L5.76741703,2.55144033 C7.53700396,2.55144033 8.9715376,3.87162354 8.9715376,5.47611915 L8.9715376,13.6596833" id="Rectangle-104"></path>
                    <path d="M11.5348341,5.74074074 C11.5348341,2.57021718 8.9526735,0 5.76741703,0 C2.58216056,0 0,2.57021718 0,5.74074074" id="Oval-14" stroke-linecap="round" stroke-linejoin="round"></path>
                </g>
                <g id="Rectangle-104-+-Oval-14-Copy-3" transform="translate(300.874214, 84.675926)" sketch:type="MSShapeGroup">
                    <path d="M2.56329646,13.6596833 L2.56329646,5.47611915 L2.56329646,5.47611915 C2.56329646,3.86086364 3.98549286,2.55144033 5.76741703,2.55144033 L5.76741703,2.55144033 C7.53700396,2.55144033 8.9715376,3.87162354 8.9715376,5.47611915 L8.9715376,13.6596833" id="Rectangle-104"></path>
                    <path d="M11.5348341,5.74074074 C11.5348341,2.57021718 8.9526735,0 5.76741703,0 C2.58216056,0 0,2.57021718 0,5.74074074" id="Oval-14" stroke-linecap="round" stroke-linejoin="round"></path>
                </g>
                <rect id="Rectangle-103" stroke-width="2" sketch:type="MSShapeGroup" x="372" y="131" width="72" height="22"></rect>
                <path d="M378,11 C378,11 408.257814,23.2207031 424.722656,57.3496094 C441.187498,91.4785156 438.515625,132 438.515625,132 L378,132 L378,11 Z" id="Rectangle-104" stroke-width="2" sketch:type="MSShapeGroup"></path>
                <path d="M384.408203,24.1835938 L392.072966,24.1835938" id="Path-215" sketch:type="MSShapeGroup"></path>
                <path d="M384,32 L398.5,32" id="Path-215-Copy" sketch:type="MSShapeGroup"></path>
                <path d="M384,39 L405.5,39" id="Path-215-Copy-2" sketch:type="MSShapeGroup"></path>
                <path d="M384,46 L410.5,46" id="Path-215-Copy-3" sketch:type="MSShapeGroup"></path>
                <path d="M384,53 L414.5,53" id="Path-215-Copy-4" sketch:type="MSShapeGroup"></path>
                <path d="M384,60 L418.5,60" id="Path-215-Copy-5" sketch:type="MSShapeGroup"></path>
                <path d="M384,67 L421.5,67" id="Path-215-Copy-6" sketch:type="MSShapeGroup"></path>
                <path d="M384,74 L424.5,74" id="Path-215-Copy-7" sketch:type="MSShapeGroup"></path>
                <path d="M384,81 L426.5,81" id="Path-215-Copy-8" sketch:type="MSShapeGroup"></path>
                <path d="M384,88 L428.5,88" id="Path-215-Copy-9" sketch:type="MSShapeGroup"></path>
                <path d="M384,95 L430.5,95" id="Path-215-Copy-10" sketch:type="MSShapeGroup"></path>
                <path d="M384,102 L431.5,102" id="Path-215-Copy-11" sketch:type="MSShapeGroup"></path>
                <path d="M384,109 L433.5,109" id="Path-215-Copy-12" sketch:type="MSShapeGroup"></path>
                <path d="M384,116 L434.5,116" id="Path-215-Copy-13" sketch:type="MSShapeGroup"></path>
                <path d="M384,123 L435.5,123" id="Path-215-Copy-14" sketch:type="MSShapeGroup"></path>
                <path d="M381,152.108243 L381,143.924679 L381,143.924679 C381,142.309423 382.331594,141 384,141 L384,141 C385.656854,141 387,142.320183 387,143.924679 L387,152.108243" id="Rectangle-104" sketch:type="MSShapeGroup"></path>
                <path d="M397,152.108243 L397,143.924679 L397,143.924679 C397,142.309423 398.331594,141 400,141 L400,141 C401.656854,141 403,142.320183 403,143.924679 L403,152.108243" id="Rectangle-104-Copy-4" sketch:type="MSShapeGroup"></path>
                <path d="M390,143.972248 C390,140.673866 387.313708,138 384,138 C380.686292,138 378,140.673866 378,143.972248" id="Oval-14" stroke-linecap="round" stroke-linejoin="round" sketch:type="MSShapeGroup"></path>
                <path d="M406,143.972248 C406,140.673866 403.313708,138 400,138 C396.686292,138 394,140.673866 394,143.972248" id="Oval-14-Copy" stroke-linecap="round" stroke-linejoin="round" sketch:type="MSShapeGroup"></path>
                <path d="M413,152.108243 L413,143.924679 L413,143.924679 C413,142.309423 414.331594,141 416,141 L416,141 C417.656854,141 419,142.320183 419,143.924679 L419,152.108243" id="Rectangle-104-Copy-5" sketch:type="MSShapeGroup"></path>
                <path d="M422,143.972248 C422,140.673866 419.313708,138 416,138 C412.686292,138 410,140.673866 410,143.972248" id="Oval-14-Copy-2" stroke-linecap="round" stroke-linejoin="round" sketch:type="MSShapeGroup"></path>
                <path d="M429,152.108243 L429,143.924679 L429,143.924679 C429,142.309423 430.331594,141 432,141 L432,141 C433.656854,141 435,142.320183 435,143.924679 L435,152.108243" id="Rectangle-104-Copy-6" sketch:type="MSShapeGroup"></path>
                <path d="M438,143.972248 C438,140.673866 435.313708,138 432,138 C428.686292,138 426,140.673866 426,143.972248" id="Oval-14-Copy-3" stroke-linecap="round" stroke-linejoin="round" sketch:type="MSShapeGroup"></path>
                <path d="M239,68.25 L297,68.25" id="Path-238" stroke-width="0.5" stroke-linecap="round" stroke-linejoin="round" opacity="0.257637593" sketch:type="MSShapeGroup"></path>
                <path d="M229,74 L307,74" id="Path-238-Copy" stroke-width="0.5" stroke-linecap="round" stroke-linejoin="round" opacity="0.257637593" sketch:type="MSShapeGroup"></path>
                <path d="M222,81 L315,81" id="Path-238-Copy-2" stroke-width="0.5" stroke-linecap="round" stroke-linejoin="round" opacity="0.257637593" sketch:type="MSShapeGroup"></path>
                <path d="M216,88.25 L222.171387,88.25" id="Path-242" stroke-width="0.5" stroke-linecap="round" stroke-linejoin="round" opacity="0.257637593" sketch:type="MSShapeGroup"></path>
                <path d="M313,88.25 L319.171387,88.25" id="Path-242-Copy-4" stroke-width="0.5" stroke-linecap="round" stroke-linejoin="round" opacity="0.257637593" sketch:type="MSShapeGroup"></path>
                <path d="M237,88.25 L248,88.25" id="Path-242-Copy" stroke-width="0.5" stroke-linecap="round" stroke-linejoin="round" opacity="0.257637593" sketch:type="MSShapeGroup"></path>
                <path d="M262,88.25 L273,88.25" id="Path-242-Copy-2" stroke-width="0.5" stroke-linecap="round" stroke-linejoin="round" opacity="0.257637593" sketch:type="MSShapeGroup"></path>
                <path d="M288,88.25 L299,88.25" id="Path-242-Copy-3" stroke-width="0.5" stroke-linecap="round" stroke-linejoin="round" opacity="0.257637593" sketch:type="MSShapeGroup"></path>
            </g>
        </g>
    </g>
</svg>