<?xml version="1.0" encoding="UTF-8" standalone="no"?>
<svg width="120px" height="120px" viewBox="0 0 120 120" version="1.1" xmlns="http://www.w3.org/2000/svg" xmlns:xlink="http://www.w3.org/1999/xlink" xmlns:sketch="http://www.bohemiancoding.com/sketch/ns">
    <!-- Generator: Sketch 3.4.2 (15857) - http://www.bohemiancoding.com/sketch -->
    <title>Artboard 3</title>
    <desc>Created with Sketch.</desc>
    <defs></defs>
    <g id="Welcome" stroke="none" stroke-width="1" fill="none" fill-rule="evenodd" sketch:type="MSPage">
        <g id="Artboard-3" sketch:type="MSArtboardGroup">
            <g id="gamepad" sketch:type="MSLayerGroup" transform="translate(21.000000, 19.000000)">
                <g id="Group" sketch:type="MSShapeGroup">
                    <rect id="cont" opacity="0" fill="#181818" x="0" y="2.7032967" width="79" height="79.2967033"></rect>
                    <rect id="Rectangle-120" stroke="#0A76E8" stroke-width="1.8" stroke-linecap="round" stroke-linejoin="round" x="1.79545455" y="32.4395604" width="71.8181818" height="36.043956" rx="18"></rect>
                    <ellipse id="Oval-44" stroke="#0A76E8" stroke-width="1.8" stroke-linecap="round" stroke-linejoin="round" cx="55.6590909" cy="50.4615385" rx="10.7727273" ry="10.8131868"></ellipse>
                    <path d="M23.3409091,43.2520534 C23.3409091,41.247682 21.7332043,39.6483516 19.75,39.6483516 C17.7529691,39.6483516 16.1590909,41.2617839 16.1590909,43.2520534 L16.1590909,46.8571429 L12.5674905,46.8571429 C10.5706188,46.8571429 8.97727273,48.4708857 8.97727273,50.4615385 C8.97727273,52.4660697 10.584668,54.0659341 12.5674905,54.0659341 L16.1590909,54.0659341 L16.1590909,57.6710235 C16.1590909,59.6753949 17.7667957,61.2747253 19.75,61.2747253 C21.7470309,61.2747253 23.3409091,59.6612931 23.3409091,57.6710235 L23.3409091,54.0659341 L26.9325095,54.0659341 C28.9293811,54.0659341 30.5227273,52.4521912 30.5227273,50.4615385 C30.5227273,48.4570073 28.915332,46.8571429 26.9325095,46.8571429 L23.3409091,46.8571429 L23.3409091,43.2520534 Z" id="Rectangle-121" stroke="#0A76E8" stroke-width="1.8" stroke-linecap="round" stroke-linejoin="round"></path>
                    <path d="M37.7573076,32.4395604 L37.7573076,27.032967 C37.7573076,24.0469879 35.3387959,21.6263736 32.3499677,21.6263736 L25.1363636,21.6263736 C22.1615571,21.6263736 19.75,19.2057593 19.75,16.2197802 C19.75,13.2338011 22.1615571,10.8131868 25.1363636,10.8131868 L37.7573073,10.8131868" id="Oval-45" stroke="#0A76E8" stroke-width="1.8" stroke-linecap="round" stroke-linejoin="round"></path>
                    <path d="M37.7045455,10.8131868 C40.6793519,10.8131868 43.0909091,8.39257249 43.0909091,5.40659341 C43.0909091,2.42061432 40.6793519,0 37.7045455,0" id="Oval-45" stroke="#0A76E8" stroke-width="1.8" stroke-linecap="round" stroke-linejoin="round"></path>
                </g>
            </g>
        </g>
    </g>
</svg>