<?xml version="1.0" encoding="UTF-8" standalone="no"?>
<svg width="272px" height="92px" viewBox="0 0 272 92" version="1.1" xmlns="http://www.w3.org/2000/svg" xmlns:xlink="http://www.w3.org/1999/xlink" xmlns:sketch="http://www.bohemiancoding.com/sketch/ns">
    <!-- Generator: Sketch 3.4.2 (15857) - http://www.bohemiancoding.com/sketch -->
    <title>Logo</title>
    <desc>Created with Sketch.</desc>
    <defs>
        <path id="path-1" d="M0,0.0377142857 L268.920136,0.0377142857 L268.920136,88 L0,88 L0,0.0377142857 Z"></path>
    </defs>
    <g id="Welcome" stroke="none" stroke-width="1" fill="none" fill-rule="evenodd" sketch:type="MSPage">
        <g id="Logo" sketch:type="MSArtboardGroup">
            <g id="Page-1" sketch:type="MSLayerGroup" transform="translate(2.000000, 2.000000)">
                <path d="M242.577103,49.4947872 C242.40381,49.7441567 242.197313,50.0261468 241.958696,50.3297034 C241.731148,50.6222059 241.503057,50.9257626 241.253372,51.218265 C241.014755,51.5107675 240.797732,51.7706493 240.591777,51.9984522 C240.38528,52.2367675 240.222512,52.4103833 240.103475,52.52927 C240.103475,52.5834571 240.114001,52.6376443 240.125069,52.6813192 C240.146663,52.7355064 240.168257,52.7681271 240.222512,52.7896936 C240.483266,52.7786394 240.819326,52.7681271 241.231778,52.7570729 C241.654756,52.7355064 242.165194,52.7244522 242.762007,52.7244522 L248.599491,52.7244522 C249.391734,52.7244522 250.118652,52.7244522 250.791858,52.7355064 C251.475046,52.7570729 252.115589,52.7681271 252.733996,52.7896936 C252.83144,52.6486985 252.918357,52.4535163 253.016343,52.2041468 C253.113787,51.9553192 253.21123,51.6843833 253.309216,51.3808266 C253.396134,51.0883241 253.482509,50.7847675 253.569426,50.4701567 C253.645276,50.1671419 253.7106,49.8851517 253.753787,49.62527 C253.732194,49.5600286 253.689006,49.5168956 253.623682,49.4842749 C253.558901,49.4516542 253.493577,49.4406 253.417727,49.4406 C253.33081,49.4406 253.265486,49.4516542 253.189636,49.4732207 C253.059531,49.7657232 252.907832,50.0477133 252.75559,50.3075951 C252.592823,50.578531 252.41953,50.8173882 252.224101,51.0230828 C252.028672,51.2398315 251.822717,51.4023931 251.594626,51.5218217 C251.377603,51.6407084 251.106324,51.7275163 250.78079,51.80327 C250.466323,51.8685113 250.108127,51.9226985 249.717268,51.9553192 C249.337478,51.987398 248.947162,52.0095064 248.545236,52.0200187 C248.143852,52.0310729 247.764061,52.0310729 247.395339,52.0310729 L245.344147,52.0310729 C244.76947,52.0200187 244.335424,52.0095064 244.031483,51.987398 C243.824986,51.9768857 243.673286,51.944265 243.564775,51.901132 C243.456263,51.8574571 243.402008,51.7817034 243.402008,51.6733291 C243.402008,51.6191419 243.456263,51.4997133 243.543181,51.3371517 C243.640625,51.1530236 243.77073,50.9473291 243.922971,50.7090138 C244.074671,50.4701567 244.248506,50.2213291 244.432867,49.9609054 C244.606702,49.7010236 244.779995,49.4406 244.953831,49.2022847 C245.116598,48.9639695 245.268297,48.7582749 245.398402,48.5736049 C245.517982,48.400531 245.6049,48.2811025 245.648087,48.216403 L249.391734,42.9165704 C249.630351,42.5698808 249.891104,42.2121369 250.183976,41.8223143 C250.466323,41.4319498 250.748128,41.0526394 251.041,40.6622749 C251.334415,40.2724522 251.61622,39.9036542 251.887498,39.5569645 C252.158777,39.2213291 252.397394,38.9177724 252.614417,38.668403 C252.83144,38.4190335 252.994207,38.2459596 253.124855,38.1375852 C253.124855,38.0939103 253.113787,38.0507773 253.092193,38.0181567 C253.070599,37.9750236 253.037937,37.9529153 252.983681,37.942403 C252.907832,37.9529153 252.766658,37.9639695 252.560161,37.9750236 C252.354206,37.985536 252.071859,37.9965901 251.724731,37.9965901 C251.366535,37.9965901 250.910895,38.0071025 250.368337,38.0071025 L244.378611,38.0071025 C243.911903,38.0071025 243.543181,37.9965901 243.260834,37.9965901 C242.967962,37.985536 242.739871,37.9639695 242.588172,37.9313488 C242.425404,37.8882158 242.316893,37.8340286 242.251569,37.7582749 C242.175719,37.6819793 242.143057,37.5846591 242.121464,37.443664 C242.067208,37.4110433 241.991358,37.400531 241.926034,37.400531 C241.850185,37.400531 241.785403,37.4110433 241.741673,37.443664 C241.64423,37.8666493 241.546244,38.2780384 241.437733,38.6899695 C241.329221,39.1019005 241.22071,39.492265 241.112198,39.849467 C241.003687,40.218265 240.895175,40.532334 240.8088,40.7927576 C240.863056,40.8900778 240.938905,40.944265 241.047417,40.9768857 C241.155928,41.0095064 241.274965,40.9984522 241.372951,40.9553192 C241.437733,40.8248365 241.514125,40.6733291 241.611568,40.4997133 C241.709011,40.3371517 241.817523,40.1530236 241.948171,39.9688956 C242.078276,39.7847675 242.219449,39.6006394 242.371149,39.4380778 C242.55551,39.2428956 242.794126,39.0908463 243.087541,38.9824719 C243.39094,38.8740975 243.760204,38.7983438 244.19425,38.7552108 C244.638822,38.711536 245.159785,38.6899695 245.756599,38.7010236 L249.142049,38.7010236 C249.435464,38.7010236 249.652487,38.711536 249.782592,38.7441567 C249.901629,38.7767773 249.966953,38.8199103 249.966953,38.8740975 C249.966953,38.9503931 249.934291,39.0366591 249.891104,39.1345212 C249.836848,39.2318414 249.771524,39.3402158 249.695675,39.4812108 C249.565569,39.6979596 249.413328,39.9473291 249.218441,40.2287773 C249.023012,40.5107675 248.784395,40.8469448 248.502048,41.2367675 C248.219701,41.627132 247.883641,42.1037626 247.482257,42.6456345 L242.577103,49.4947872 Z M231.519999,41.6918315 C231.650104,41.3451419 231.758616,41.0636936 231.856602,40.8248365 C231.954045,40.5865212 232.019369,40.4350138 232.062556,40.3697724 L232.105744,40.3697724 C232.149474,40.4676345 232.20373,40.5865212 232.257986,40.7385704 C232.322767,40.8900778 232.377023,41.0526394 232.442347,41.2367675 C232.507671,41.4208956 232.572452,41.5945113 232.626708,41.7786394 L233.852996,45.4091813 C233.928846,45.6043635 233.961508,45.7558709 233.961508,45.853733 C233.961508,45.9621074 233.91832,46.0268069 233.831402,46.0594276 C233.733416,46.0920483 233.570649,46.1031025 233.353626,46.1031025 L230.564989,46.1031025 C230.359034,46.1031025 230.196267,46.1031025 230.109349,46.0704818 C230.022432,46.0594276 229.979244,46.0052404 229.98977,45.9294867 C229.98977,45.853733 230.022432,45.7343044 230.087756,45.5717429 L231.519999,41.6918315 Z M235.578112,50.578531 C235.676098,50.849467 235.740879,51.0883241 235.795135,51.2829645 C235.849391,51.489201 235.882053,51.6407084 235.882053,51.7706493 C235.871527,51.8790236 235.806203,51.9658315 235.654504,52.0310729 C235.51333,52.1068266 235.328969,52.1394473 235.079284,52.172068 L234.428215,52.2367675 C234.37396,52.2804424 234.341298,52.3346296 234.319704,52.4103833 C234.308636,52.4861369 234.319704,52.5618906 234.341298,52.6376443 C234.362892,52.7028857 234.406622,52.7570729 234.471403,52.7896936 C234.796938,52.7786394 235.176728,52.7681271 235.610774,52.7570729 C236.04482,52.7355064 236.533122,52.7244522 237.075679,52.7244522 C237.422807,52.7244522 237.737816,52.7244522 238.041757,52.7355064 C238.345155,52.7355064 238.63857,52.7460187 238.931443,52.7570729 C239.224315,52.7681271 239.528256,52.7786394 239.832197,52.7896936 C239.864316,52.7570729 239.896978,52.7028857 239.918572,52.6376443 C239.940708,52.5618906 239.940708,52.4861369 239.92964,52.4103833 C239.918572,52.3346296 239.886452,52.2804424 239.832197,52.2367675 L239.213247,52.172068 C238.97463,52.1394473 238.768675,52.0957724 238.59484,52.0200187 C238.421547,51.944265 238.269305,51.8358906 238.1392,51.6622749 C237.998027,51.4997133 237.856853,51.261398 237.726748,50.9688956 C237.596643,50.6653389 237.444944,50.2755163 237.282176,49.7983438 L234.178531,40.8358906 C234.004695,40.3482059 233.831402,39.8389547 233.657567,39.3402158 C233.484274,38.8420187 233.321507,38.3432798 233.169265,37.8555951 C233.147671,37.7687872 233.104484,37.7256542 233.03916,37.6930335 C232.973836,37.6604128 232.909055,37.6499005 232.833205,37.6499005 C232.746287,37.7472207 232.648301,37.8555951 232.53979,37.9639695 C232.420753,38.0723438 232.290648,38.1807182 232.138406,38.2675261 C231.997232,38.3648463 231.834465,38.4406 231.650104,38.4947872 C231.671698,38.6142158 231.671698,38.7441567 231.650104,38.8851517 C231.62851,39.0366591 231.585323,39.1992207 231.519999,39.394403 C231.454675,39.5895852 231.3683,39.806334 231.259788,40.0883241 L228.948385,46.1031025 C228.633376,46.9264227 228.340504,47.6524227 228.090819,48.2705901 C227.841676,48.8987281 227.624653,49.4300877 227.43975,49.8851517 C227.244863,50.3402158 227.082096,50.7410926 226.951448,51.07727 C226.842936,51.3371517 226.712831,51.5539005 226.571658,51.7059498 C226.431027,51.8574571 226.278785,51.9768857 226.116018,52.0415852 C225.942725,52.1178808 225.76889,52.1610138 225.584529,52.172068 L224.835474,52.2367675 C224.792286,52.2804424 224.759624,52.3346296 224.759624,52.4103833 C224.749099,52.4861369 224.759624,52.5618906 224.781218,52.6376443 C224.803354,52.7028857 224.835474,52.7570729 224.879204,52.7896936 C225.19367,52.7786394 225.540798,52.7681271 225.920589,52.7570729 C226.300379,52.7355064 226.680169,52.7244522 227.059959,52.7244522 C227.591991,52.7355064 228.047631,52.7460187 228.427421,52.7570729 C228.796143,52.7570729 229.132746,52.7681271 229.425618,52.7896936 C229.490942,52.7570729 229.53413,52.7028857 229.566792,52.6376443 C229.588386,52.5618906 229.588386,52.4861369 229.57786,52.4103833 C229.555724,52.3346296 229.523604,52.2804424 229.469349,52.2367675 L228.720294,52.172068 C228.547001,52.1499596 228.405827,52.1283931 228.307842,52.0957724 C228.210398,52.0526394 228.145074,52.0095064 228.112955,51.944265 C228.080293,51.8900778 228.058699,51.8143241 228.058699,51.7275163 C228.058699,51.5975754 228.101887,51.3913389 228.177736,51.0883241 C228.264654,50.7737133 228.394759,50.3728365 228.557527,49.8740975 L229.360837,47.5224818 C229.404025,47.3709744 229.45828,47.2515458 229.523604,47.1868463 C229.588386,47.1000384 229.675303,47.0458512 229.783815,47.0242847 C229.881258,47.0021764 230.0335,46.991664 230.217861,46.991664 L233.647041,46.991664 C233.87459,46.991664 234.048425,47.0021764 234.156937,47.0242847 C234.275974,47.0458512 234.362892,47.1105507 234.428215,47.1868463 C234.482471,47.2731123 234.536727,47.3814867 234.579915,47.5551025 L235.578112,50.578531 Z M215.406042,49.3864128 C215.406042,49.9609054 215.394973,50.4270236 215.384448,50.7847675 C215.362854,51.1425113 215.308598,51.4134473 215.221681,51.6080877 C215.134763,51.7927576 214.993589,51.9226985 214.809228,51.9984522 C214.624867,52.0852601 214.364114,52.1394473 214.049648,52.172068 L213.365917,52.2367675 C213.311661,52.2804424 213.290067,52.3451419 213.278999,52.4208956 C213.278999,52.5077034 213.278999,52.5729448 213.311661,52.6486985 C213.333255,52.7139399 213.365917,52.7681271 213.409647,52.7896936 C213.821557,52.7786394 214.201347,52.7681271 214.526881,52.7570729 C214.852416,52.7460187 215.167425,52.7355064 215.460297,52.7355064 C215.742644,52.7244522 216.046042,52.7244522 216.361051,52.7244522 L218.455432,52.7244522 C219.236606,52.7244522 219.985118,52.7244522 220.701511,52.7355064 C221.417362,52.7355064 222.06843,52.7460187 222.64365,52.7570729 C223.229938,52.7681271 223.718239,52.7786394 224.108555,52.7896936 C224.173879,52.670265 224.249729,52.4861369 224.325578,52.258334 C224.412496,52.0310729 224.499414,51.7817034 224.586331,51.4997133 C224.662181,51.2287773 224.749099,50.9688956 224.81388,50.7090138 C224.889729,50.4485901 224.943985,50.2213291 224.998241,50.0261468 C225.041971,49.8420187 225.063565,49.7225901 225.063565,49.668403 C225.063565,49.6142158 225.020377,49.5710828 224.943985,49.5384621 C224.868136,49.5058414 224.792286,49.4947872 224.705368,49.4947872 C224.607925,49.4842749 224.542601,49.4947872 224.499414,49.5384621 C224.260797,50.1129547 224.011112,50.578531 223.750359,50.9688956 C223.47908,51.3482059 223.229938,51.6080877 222.990778,51.7490828 C222.904403,51.7927576 222.806417,51.8358906 222.68738,51.8790236 C222.556732,51.9116443 222.393965,51.944265 222.199078,51.9658315 C222.003649,51.987398 221.742896,51.9984522 221.417362,52.0200187 C221.102895,52.0310729 220.701511,52.0310729 220.223735,52.0310729 C219.779163,52.0310729 219.409899,52.0200187 219.117026,51.987398 C218.824154,51.9553192 218.585537,51.9226985 218.411702,51.8685113 C218.227341,51.8143241 218.086167,51.7706493 217.988724,51.7059498 C217.890738,51.6407084 217.804363,51.5865212 217.750107,51.5218217 C217.608934,51.3808266 217.510948,51.218265 217.446166,51.0230828 C217.370317,50.8279005 217.326587,50.578531 217.304993,50.2755163 C217.283399,49.9609054 217.272331,49.5815951 217.272331,49.1154768 L217.272331,41.3561961 C217.261805,40.7706493 217.283399,40.3050729 217.293925,39.9362749 C217.316061,39.578531 217.370317,39.3075951 217.456692,39.1129547 C217.54361,38.9177724 217.684783,38.7767773 217.869144,38.7010236 C218.064573,38.6142158 218.324784,38.5600286 218.661387,38.5384621 L219.203944,38.4947872 C219.247132,38.4627084 219.269268,38.4085212 219.279794,38.3217133 C219.290862,38.2459596 219.279794,38.169664 219.2582,38.0939103 C219.236606,38.0181567 219.203944,37.9639695 219.149688,37.942403 C218.780966,37.9529153 218.433295,37.9639695 218.118829,37.9750236 C217.814888,37.985536 217.510948,37.9965901 217.229143,37.9965901 C216.936271,37.9965901 216.653924,38.0071025 216.361051,38.0071025 C216.068179,38.0071025 215.764238,37.9965901 215.471366,37.9965901 C215.17795,37.9965901 214.874552,37.985536 214.53795,37.9750236 C214.201347,37.9639695 213.821557,37.9529153 213.409647,37.942403 C213.365917,37.9639695 213.333255,38.0181567 213.311661,38.0939103 C213.278999,38.169664 213.278999,38.2459596 213.278999,38.3217133 C213.290067,38.4085212 213.311661,38.4627084 213.365917,38.4947872 L213.930068,38.5384621 C214.288265,38.5600286 214.559543,38.6142158 214.766041,38.7010236 C214.971996,38.7767773 215.113169,38.9177724 215.200087,39.1129547 C215.29753,39.3075951 215.351786,39.578531 215.37338,39.9362749 C215.394973,40.3050729 215.406042,40.7706493 215.406042,41.3561961 L215.406042,49.3864128 Z M203.61095,37.3894768 C203.61095,37.1837823 203.621476,37.0212207 203.643612,36.8912798 C203.665206,36.7718512 203.708394,36.674531 203.795311,36.6203438 C203.892755,36.5551025 204.023403,36.5119695 204.218289,36.4898611 C204.413719,36.4682946 204.684997,36.4577823 205.0216,36.4577823 C205.932879,36.4682946 206.703528,36.6419103 207.333003,36.9670335 C207.961936,37.3137232 208.439712,37.7903537 208.754178,38.397467 C209.090781,39.0150926 209.24248,39.7410926 209.24248,40.5865212 C209.253548,41.3235754 209.133969,41.9953882 208.873758,42.580935 C208.624073,43.1659399 208.211621,43.6536246 207.658538,44.0545015 C207.083318,44.444866 206.334263,44.7263143 205.390322,44.89993 C205.347134,44.9214966 205.303404,44.9756837 205.292879,45.0409251 C205.271285,45.1166788 205.271285,45.1819202 205.292879,45.2576739 C205.314472,45.3334276 205.35766,45.3876148 205.422984,45.4202355 C205.78118,45.4202355 206.171496,45.3876148 206.583948,45.3334276 C206.996401,45.2902946 207.408853,45.2034867 207.831831,45.0840581 C208.244283,44.9756837 208.645667,44.8241764 209.036525,44.6505606 C209.329398,44.5095655 209.62227,44.3364916 209.926211,44.1086887 C210.230152,43.8919399 210.511956,43.6104916 210.772709,43.2853685 C211.03292,42.9602453 211.249943,42.5698808 211.41271,42.1148167 C211.575477,41.670265 211.651327,41.1499596 211.662395,40.5539005 C211.651327,39.9578414 211.564952,39.4159695 211.380048,38.9282847 C211.206755,38.4406 210.95707,38.0071025 210.642604,37.6277921 C210.327595,37.259536 209.969399,36.945467 209.568015,36.6960975 C208.949608,36.3272995 208.233215,36.0563635 207.397785,35.9048562 C206.573423,35.7312404 205.618413,35.6665409 204.533298,35.6665409 C203.448183,35.6665409 202.482105,35.6770532 201.63615,35.6991616 C200.789652,35.7207281 200.030071,35.7854276 199.335272,35.8722355 C199.270491,35.9048562 199.22676,35.9590433 199.194641,36.0458512 C199.161979,36.1216049 199.150911,36.2084128 199.172505,36.2952207 C199.183573,36.3925409 199.22676,36.4577823 199.292084,36.5119695 L200.236026,36.6203438 C200.518373,36.6419103 200.75699,36.7066099 200.919757,36.7934177 C201.093592,36.8802256 201.212629,37.0212207 201.288479,37.216403 C201.364871,37.4110433 201.419127,37.6819793 201.440721,38.0397232 C201.462314,38.3759005 201.473382,38.8199103 201.462314,39.3728365 L201.462314,48.8666493 C201.473382,49.5384621 201.451246,50.080334 201.429652,50.4812108 C201.408059,50.8820877 201.342735,51.1966985 201.245291,51.4134473 C201.147848,51.6191419 200.995606,51.7817034 200.778583,51.8685113 C200.56156,51.9658315 200.268688,52.0310729 199.888898,52.0852601 L199.335272,52.1610138 C199.292084,52.215201 199.259422,52.2909547 199.248897,52.3777626 C199.237829,52.4645704 199.248897,52.5513783 199.270491,52.6376443 C199.303153,52.7139399 199.335272,52.7681271 199.389528,52.8002059 C199.780386,52.7896936 200.138583,52.7681271 200.485711,52.7570729 C200.832839,52.7460187 201.179967,52.7355064 201.527638,52.7355064 C201.874767,52.7355064 202.232963,52.7244522 202.590617,52.7244522 C202.938288,52.7244522 203.274348,52.7355064 203.61095,52.7355064 C203.936485,52.7355064 204.294681,52.7460187 204.684997,52.7570729 C205.064787,52.7681271 205.498833,52.7896936 205.998203,52.8002059 C206.052459,52.7681271 206.085121,52.7139399 206.117241,52.627132 C206.139377,52.5403241 206.149902,52.4535163 206.139377,52.3667084 C206.139377,52.2804424 206.106715,52.2041468 206.052459,52.1610138 L205.347134,52.0852601 C204.923614,52.0415852 204.59808,51.9768857 204.359463,51.8900778 C204.131914,51.7927576 203.958079,51.6407084 203.849567,51.4239596 C203.741056,51.2072108 203.675732,50.8931419 203.643612,50.4812108 C203.621476,50.080334 203.61095,49.5384621 203.61095,48.8666493 L203.61095,37.3894768 Z M181.897583,49.3864128 C181.897583,49.9609054 181.887057,50.4270236 181.864921,50.7847675 C181.843327,51.1425113 181.789071,51.4134473 181.713222,51.6080877 C181.626304,51.7927576 181.485131,51.9226985 181.30077,51.9984522 C181.116409,52.0852601 180.856198,52.1394473 180.530664,52.172068 L179.846933,52.2367675 C179.803203,52.2804424 179.781609,52.3451419 179.771083,52.4208956 C179.760015,52.5077034 179.771083,52.5729448 179.792677,52.6486985 C179.814271,52.7139399 179.846933,52.7681271 179.89012,52.7896936 C180.313641,52.7786394 180.682363,52.7681271 181.018965,52.7570729 C181.3445,52.7460187 181.647898,52.7355064 181.941313,52.7355064 C182.234186,52.7244522 182.527058,52.7244522 182.852593,52.7244522 L184.935905,52.7244522 C185.717079,52.7244522 186.47666,52.7244522 187.181984,52.7355064 C187.898377,52.7355064 188.560514,52.7460187 189.135191,52.7570729 C189.721479,52.7681271 190.209781,52.7786394 190.600096,52.7896936 C190.66542,52.670265 190.74127,52.4861369 190.817119,52.258334 C190.904037,52.0310729 190.979887,51.7817034 191.066804,51.4997133 C191.153722,51.2287773 191.229572,50.9688956 191.305421,50.7090138 C191.381813,50.4485901 191.436069,50.2213291 191.479257,50.0261468 C191.533512,49.8420187 191.555106,49.7225901 191.555106,49.668403 C191.544581,49.6142158 191.511919,49.5710828 191.436069,49.5384621 C191.359677,49.5058414 191.283827,49.4947872 191.19691,49.4947872 C191.099466,49.4842749 191.034142,49.4947872 190.979887,49.5384621 C190.752338,50.1129547 190.502653,50.578531 190.231374,50.9688956 C189.971164,51.3482059 189.721479,51.6080877 189.482862,51.7490828 C189.395944,51.7927576 189.297959,51.8358906 189.167853,51.8790236 C189.048816,51.9116443 188.886049,51.944265 188.69062,51.9658315 C188.49519,51.987398 188.223912,51.9984522 187.909445,52.0200187 C187.594437,52.0310729 187.193053,52.0310729 186.704751,52.0310729 C186.259637,52.0310729 185.901983,52.0200187 185.598042,51.987398 C185.30517,51.9553192 185.06601,51.9226985 184.892717,51.8685113 C184.718882,51.8143241 184.577708,51.7706493 184.469197,51.7059498 C184.371754,51.6407084 184.295904,51.5865212 184.23058,51.5218217 C184.100475,51.3808266 184.003032,51.218265 183.926639,51.0230828 C183.861858,50.8279005 183.818128,50.578531 183.786009,50.2755163 C183.763872,49.9609054 183.753347,49.5815951 183.753347,49.1154768 L183.753347,41.3561961 C183.753347,40.7706493 183.763872,40.3050729 183.786009,39.9362749 C183.807602,39.578531 183.861858,39.3075951 183.948776,39.1129547 C184.035151,38.9177724 184.165799,38.7767773 184.360685,38.7010236 C184.545589,38.6142158 184.8058,38.5600286 185.142402,38.5384621 L185.68496,38.4947872 C185.739215,38.4627084 185.760809,38.4085212 185.771335,38.3217133 C185.771335,38.2459596 185.771335,38.169664 185.739215,38.0939103 C185.717079,38.0181567 185.68496,37.9639695 185.64123,37.942403 C185.261439,37.9529153 184.925379,37.9639695 184.61037,37.9750236 C184.295904,37.985536 184.003032,37.9965901 183.720685,37.9965901 C183.427812,37.9965901 183.13494,38.0071025 182.852593,38.0071025 C182.548652,38.0071025 182.255779,37.9965901 181.962907,37.9965901 C181.670034,37.9965901 181.355025,37.985536 181.018965,37.9750236 C180.693431,37.9639695 180.313641,37.9529153 179.89012,37.942403 C179.846933,37.9639695 179.814271,38.0181567 179.792677,38.0939103 C179.771083,38.169664 179.760015,38.2459596 179.771083,38.3217133 C179.781609,38.4085212 179.803203,38.4627084 179.846933,38.4947872 L180.411084,38.5384621 C180.76928,38.5600286 181.051085,38.6142158 181.246514,38.7010236 C181.453011,38.7767773 181.60471,38.9177724 181.691628,39.1129547 C181.789071,39.3075951 181.843327,39.578531 181.864921,39.9362749 C181.887057,40.3050729 181.897583,40.7706493 181.897583,41.3561961 L181.897583,49.3864128 Z M174.214861,49.3322256 C174.214861,49.9282847 174.204335,50.394403 174.182741,50.7521468 C174.160605,51.1098906 174.117417,51.3913389 174.019974,51.5865212 C173.933056,51.7706493 173.802951,51.9116443 173.607522,51.9984522 C173.423161,52.0742059 173.162408,52.1394473 172.826347,52.172068 L172.261654,52.2367675 C172.218466,52.2804424 172.185804,52.3451419 172.185804,52.4208956 C172.175278,52.5077034 172.185804,52.5729448 172.207398,52.6486985 C172.229534,52.7139399 172.261654,52.7681271 172.305384,52.7896936 C172.685174,52.7786394 173.021234,52.7681271 173.336243,52.7570729 C173.661777,52.7460187 173.95465,52.7355064 174.258591,52.7355064 C174.551463,52.7244522 174.855404,52.7244522 175.16987,52.7244522 C175.462743,52.7244522 175.766683,52.7244522 176.04903,52.7355064 C176.341903,52.7355064 176.634775,52.7460187 176.949784,52.7570729 C177.264251,52.7681271 177.611379,52.7786394 177.991169,52.7896936 C178.034899,52.7681271 178.067019,52.7139399 178.089155,52.6376443 C178.110749,52.5618906 178.121274,52.4861369 178.110749,52.4103833 C178.099681,52.3235754 178.078087,52.2693882 178.034899,52.2367675 L177.45968,52.172068 C177.134145,52.1394473 176.873392,52.0742059 176.678506,51.9984522 C176.493602,51.9116443 176.352971,51.7706493 176.266053,51.5865212 C176.179136,51.3913389 176.12488,51.1098906 176.103286,50.7521468 C176.081692,50.394403 176.070624,49.9282847 176.081692,49.3322256 L176.081692,41.3993291 C176.070624,40.8143241 176.081692,40.3371517 176.103286,39.9688956 C176.12488,39.6006394 176.179136,39.3186493 176.266053,39.123467 C176.352971,38.9177724 176.493602,38.7878315 176.678506,38.7010236 C176.873392,38.6142158 177.134145,38.5600286 177.45968,38.5384621 L178.034899,38.4947872 C178.078087,38.4627084 178.099681,38.4085212 178.110749,38.3217133 C178.121274,38.2459596 178.110749,38.169664 178.089155,38.0939103 C178.067019,38.0181567 178.034899,37.9639695 177.991169,37.942403 C177.611379,37.9529153 177.264251,37.9639695 176.949784,37.9750236 C176.634775,37.985536 176.341903,37.9965901 176.04903,37.9965901 C175.766683,37.9965901 175.462743,38.0071025 175.16987,38.0071025 C174.855404,38.0071025 174.551463,37.9965901 174.258591,37.9965901 C173.95465,37.9965901 173.661777,37.985536 173.336243,37.9750236 C173.021234,37.9639695 172.685174,37.9529153 172.305384,37.942403 C172.261654,37.9639695 172.229534,38.0181567 172.207398,38.0939103 C172.185804,38.169664 172.175278,38.2459596 172.185804,38.3217133 C172.185804,38.4085212 172.218466,38.4627084 172.261654,38.4947872 L172.826347,38.5384621 C173.162408,38.5600286 173.423161,38.6142158 173.607522,38.7010236 C173.802951,38.7878315 173.933056,38.9177724 174.019974,39.123467 C174.117417,39.3186493 174.160605,39.6006394 174.182741,39.9688956 C174.204335,40.3371517 174.214861,40.8143241 174.214861,41.3993291 L174.214861,49.3322256 Z M158.350588,40.6407084 C158.350588,40.1425113 158.372182,39.7410926 158.404844,39.4596443 C158.437506,39.1776542 158.491762,39.0045803 158.578679,38.9393389 C158.676123,38.8740975 158.904214,38.7983438 159.272936,38.7336443 C159.642201,38.668403 160.162622,38.6357823 160.835827,38.6357823 C161.822956,38.6357823 162.691048,38.7441567 163.429035,38.9503931 C164.167021,39.1560877 164.807022,39.4380778 165.339054,39.7952798 C165.859475,40.1530236 166.293521,40.5649547 166.641192,41.0095064 C166.98832,41.4645704 167.259599,41.941201 167.455028,42.4288857 C167.649915,42.9276246 167.791088,43.4153094 167.878006,43.8919399 C167.953856,44.3691123 167.997586,44.8241764 167.986518,45.2361074 C167.986518,46.2761764 167.866938,47.2189251 167.606727,48.0754079 C167.357042,48.9313488 166.966727,49.6573488 166.456289,50.2755163 C165.924799,50.8931419 165.262662,51.3697724 164.459894,51.7059498 C163.657126,52.0415852 162.712642,52.2041468 161.605933,52.215201 C160.890083,52.215201 160.303795,52.1499596 159.859224,52.0200187 C159.403041,51.8790236 159.055913,51.6407084 158.806228,51.3050729 C158.621867,51.0341369 158.50283,50.7090138 158.437506,50.3297034 C158.38325,49.9393389 158.350588,49.4516542 158.350588,48.8666493 L158.350588,40.6407084 Z M156.495367,49.3864128 C156.495367,49.9609054 156.484299,50.4270236 156.462705,50.7737133 C156.441111,51.1314571 156.386856,51.4023931 156.310464,51.5865212 C156.224088,51.7706493 156.082915,51.901132 155.898554,51.987398 C155.71365,52.0636936 155.45344,52.1283931 155.127905,52.172068 L154.606942,52.2367675 C154.563754,52.2804424 154.531092,52.3451419 154.531092,52.4208956 C154.520024,52.5077034 154.531092,52.5729448 154.552686,52.6486985 C154.57428,52.7139399 154.606942,52.7681271 154.650672,52.7896936 C155.008326,52.7786394 155.33386,52.7681271 155.648869,52.7570729 C155.963335,52.7460187 156.267276,52.7355064 156.571217,52.7355064 C156.864089,52.7244522 157.178556,52.7244522 157.493564,52.7244522 C157.764843,52.7244522 158.090378,52.7460187 158.480694,52.7681271 C158.871552,52.8002059 159.305598,52.8328266 159.761238,52.8654473 C160.227946,52.8870138 160.705179,52.898068 161.193481,52.898068 C161.779769,52.898068 162.376582,52.8654473 162.962327,52.8002059 C163.55914,52.7244522 164.134359,52.6160778 164.698511,52.4535163 C165.262662,52.3020089 165.794694,52.0957724 166.282996,51.8358906 C167.151088,51.3697724 167.878006,50.806334 168.463751,50.123467 C169.060564,49.4516542 169.505679,48.6930335 169.809619,47.8586591 C170.11356,47.0242847 170.265259,46.1351813 170.265259,45.1819202 C170.265259,44.444866 170.167816,43.7404325 169.972387,43.0686197 C169.776957,42.396265 169.484085,41.7786394 169.104295,41.2041468 C168.724504,40.6301961 168.236203,40.1314571 167.660983,39.6763931 C167.085764,39.2428956 166.413101,38.8851517 165.65352,38.6142158 C164.915534,38.3432798 164.134359,38.169664 163.309455,38.0723438 C162.485093,37.9750236 161.605933,37.9313488 160.650923,37.942403 C159.685388,37.942403 158.741447,37.9529153 157.797505,37.985536 C156.864089,38.0181567 155.90908,38.0612897 154.943544,38.1154768 C154.87822,38.1480975 154.823965,38.2022847 154.802371,38.2780384 C154.780777,38.354334 154.780777,38.4300877 154.802371,38.5058414 C154.823965,38.5710828 154.867695,38.6357823 154.92195,38.668403 L155.420778,38.7441567 C155.735787,38.7767773 155.974403,38.8740975 156.126103,39.0150926 C156.278344,39.1560877 156.375787,39.3728365 156.430043,39.6763931 C156.484299,39.9799498 156.495367,40.3913389 156.495367,40.9116443 L156.495367,49.3864128 Z M144.949418,52.3888167 C144.211432,52.3888167 143.538769,52.2804424 142.941956,52.0636936 C142.356211,51.8358906 141.835247,51.5433882 141.379607,51.1530236 C140.923967,50.7737133 140.544177,50.3402158 140.218643,49.8420187 C139.893108,49.3432798 139.632355,48.8124621 139.4264,48.2379695 C139.230971,47.674531 139.079272,47.1000384 138.981286,46.5144916 C138.883843,45.9294867 138.840113,45.3660483 138.840113,44.8131222 C138.840113,43.8377527 138.959692,42.9818118 139.176715,42.2558118 C139.393738,41.5403241 139.697679,40.9226985 140.066401,40.4239596 C140.446191,39.9257626 140.869712,39.5138315 141.335877,39.2102749 C141.802585,38.9067182 142.290887,38.6794571 142.800782,38.5489744 C143.300152,38.4085212 143.788454,38.3322256 144.265687,38.3432798 C145.133779,38.3432798 145.904428,38.4947872 146.555497,38.7767773 C147.217634,39.0692798 147.781785,39.4701567 148.259019,39.9688956 C148.725727,40.4781468 149.105517,41.0526394 149.409458,41.7139399 C149.70233,42.3641862 149.919353,43.0465113 150.060527,43.7835655 C150.2017,44.5095655 150.27755,45.2466197 150.266482,45.9947281 C150.266482,46.8617232 150.169038,47.6524227 149.973609,48.3463438 C149.789248,49.0397232 149.517969,49.6357823 149.181367,50.1450335 C148.845307,50.6548266 148.454448,51.07727 147.998808,51.4023931 C147.553694,51.7385704 147.065393,51.987398 146.555497,52.1394473 C146.034533,52.3125212 145.503044,52.3888167 144.949418,52.3888167 L144.949418,52.3888167 Z M144.656546,53.0821961 C145.535706,53.0821961 146.371136,52.9522552 147.163378,52.7028857 C147.955078,52.4535163 148.671471,52.1068266 149.32254,51.6407084 C149.984677,51.1745901 150.548829,50.6222059 151.026062,49.9824719 C151.503838,49.3432798 151.87256,48.6277921 152.143839,47.8370926 C152.40405,47.0458512 152.534698,46.2004227 152.534698,45.3008069 C152.534698,44.5095655 152.436712,43.7404325 152.230757,42.9923241 C152.013734,42.2558118 151.698725,41.5618906 151.275747,40.9116443 C150.852769,40.2724522 150.331806,39.6979596 149.70233,39.2102749 C149.06233,38.7225901 148.334869,38.3432798 147.488913,38.0723438 C146.65294,37.7903537 145.708999,37.6499005 144.656546,37.6499005 C143.484513,37.6604128 142.399398,37.8555951 141.422795,38.2564719 C140.435666,38.6468365 139.578099,39.1992207 138.862249,39.9147084 C138.134788,40.6191419 137.570637,41.4535163 137.180321,42.4073192 C136.778394,43.3611222 136.572439,44.4011911 136.572439,45.5175557 C136.572439,46.3303635 136.692019,47.1000384 136.919568,47.8476049 C137.158184,48.5957133 137.505855,49.2890926 137.961495,49.9177724 C138.417135,50.5569645 138.97076,51.1098906 139.632355,51.5760089 C140.283424,52.0526394 141.032479,52.4208956 141.878435,52.6813192 C142.724933,52.941201 143.64728,53.0821961 144.656546,53.0821961 L144.656546,53.0821961 Z M126.632569,37.3894768 C126.632569,37.1837823 126.643637,37.0212207 126.665231,36.8912798 C126.686825,36.7718512 126.730555,36.674531 126.827998,36.6203438 C126.914916,36.5551025 127.05609,36.5119695 127.240451,36.4898611 C127.43588,36.4682946 127.707159,36.4577823 128.054287,36.4577823 C128.955041,36.4682946 129.725147,36.6419103 130.354622,36.9670335 C130.984097,37.3137232 131.461331,37.7903537 131.786865,38.397467 C132.1124,39.0150926 132.275167,39.7410926 132.275167,40.5865212 C132.275167,41.3235754 132.15613,41.9953882 131.895377,42.580935 C131.646234,43.1659399 131.244308,43.6536246 130.680157,44.0545015 C130.104937,44.444866 129.356425,44.7263143 128.423009,44.89993 C128.368753,44.9214966 128.336634,44.9756837 128.314497,45.0409251 C128.292904,45.1166788 128.303972,45.1819202 128.325566,45.2576739 C128.347159,45.3334276 128.379821,45.3876148 128.445145,45.4202355 C128.813867,45.4202355 129.193658,45.3876148 129.60611,45.3334276 C130.018562,45.2902946 130.430472,45.2034867 130.853992,45.0840581 C131.27697,44.9756837 131.667828,44.8241764 132.058144,44.6505606 C132.351559,44.5095655 132.644432,44.3364916 132.948372,44.1086887 C133.251771,43.8919399 133.534117,43.6104916 133.794328,43.2853685 C134.055081,42.9602453 134.272104,42.5698808 134.434871,42.1148167 C134.597639,41.670265 134.684556,41.1499596 134.684556,40.5539005 C134.684556,39.9578414 134.58657,39.4159695 134.413278,38.9282847 C134.228374,38.4406 133.979232,38.0071025 133.664223,37.6277921 C133.349756,37.259536 132.99156,36.945467 132.590176,36.6960975 C131.971769,36.3272995 131.255376,36.0563635 130.419946,35.9048562 C129.595042,35.7312404 128.640032,35.6665409 127.554917,35.6665409 C126.469802,35.6665409 125.504267,35.6770532 124.668837,35.6991616 C123.81127,35.7207281 123.05169,35.7854276 122.357433,35.8722355 C122.292109,35.9048562 122.248922,35.9590433 122.21626,36.0458512 C122.183598,36.1216049 122.183598,36.2084128 122.194666,36.2952207 C122.205734,36.3925409 122.248922,36.4577823 122.314246,36.5119695 L123.258187,36.6203438 C123.539992,36.6419103 123.779151,36.7066099 123.941918,36.7934177 C124.115211,36.8802256 124.234791,37.0212207 124.31064,37.216403 C124.38649,37.4110433 124.440746,37.6819793 124.462339,38.0397232 C124.484476,38.3759005 124.495001,38.8199103 124.484476,39.3728365 L124.484476,48.8666493 C124.495001,49.5384621 124.473408,50.080334 124.451814,50.4812108 C124.43022,50.8820877 124.364896,51.1966985 124.267453,51.4134473 C124.169467,51.6191419 124.017768,51.7817034 123.800745,51.8685113 C123.583722,51.9658315 123.290849,52.0310729 122.911059,52.0852601 L122.357433,52.1610138 C122.314246,52.215201 122.281584,52.2909547 122.270516,52.3777626 C122.25999,52.4645704 122.270516,52.5513783 122.292109,52.6376443 C122.324771,52.7139399 122.357433,52.7681271 122.411689,52.8002059 C122.802547,52.7896936 123.160201,52.7681271 123.507872,52.7570729 C123.865526,52.7460187 124.202129,52.7355064 124.549257,52.7355064 C124.896385,52.7355064 125.254582,52.7244522 125.612778,52.7244522 C125.959906,52.7244522 126.296509,52.7355064 126.632569,52.7355064 C126.958104,52.7355064 127.327368,52.7460187 127.707159,52.7570729 C128.086949,52.7681271 128.53152,52.7896936 129.019822,52.8002059 C129.074078,52.7681271 129.117808,52.7139399 129.139402,52.627132 C129.160996,52.5403241 129.172064,52.4535163 129.160996,52.3667084 C129.160996,52.2804424 129.128334,52.2041468 129.074078,52.1610138 L128.368753,52.0852601 C127.945775,52.0415852 127.620241,51.9768857 127.39215,51.8900778 C127.153533,51.7927576 126.98024,51.6407084 126.871729,51.4239596 C126.763217,51.2072108 126.697893,50.8931419 126.665231,50.4812108 C126.643637,50.080334 126.632569,49.5384621 126.632569,48.8666493 L126.632569,37.3894768 Z M260.503647,41.6813192 C260.633753,41.3451419 260.742264,41.0526394 260.839708,40.8143241 C260.937693,40.5865212 261.013543,40.4350138 261.046205,40.3697724 L261.089393,40.3697724 C261.13258,40.4565803 261.186836,40.5865212 261.241092,40.7275163 C261.306416,40.8900778 261.371739,41.0526394 261.425995,41.2262552 L261.620882,41.7786394 L262.84717,45.4091813 C262.912494,45.6043635 262.945156,45.7558709 262.955682,45.853733 C262.955682,45.9621074 262.912494,46.0268069 262.814508,46.0594276 C262.717065,46.0920483 262.554298,46.1031025 262.348343,46.1031025 L259.548638,46.1031025 C259.34214,46.1031025 259.190441,46.1031025 259.092998,46.0704818 C259.016606,46.0594276 258.96235,46.0052404 258.973418,45.9294867 C258.973418,45.853733 259.00608,45.7343044 259.070862,45.5717429 L260.503647,41.6813192 Z M264.572829,50.578531 C264.659204,50.849467 264.735596,51.0883241 264.789852,51.2829645 C264.833039,51.4781468 264.865701,51.6407084 264.865701,51.7601369 C264.865701,51.8790236 264.789852,51.9658315 264.648678,52.0310729 C264.507505,52.0957724 264.312075,52.1394473 264.073459,52.1610138 L263.411322,52.2262552 C263.357066,52.2693882 263.324946,52.3346296 263.313878,52.4103833 C263.292284,52.4750828 263.30281,52.5513783 263.324946,52.627132 C263.357066,52.7028857 263.389728,52.7570729 263.455052,52.7896936 C263.780586,52.7786394 264.170902,52.7570729 264.604948,52.7460187 C265.038994,52.7355064 265.527296,52.7244522 266.069853,52.7244522 L267.035931,52.7244522 C267.328804,52.7355064 267.632744,52.7355064 267.925617,52.7570729 C268.207964,52.7570729 268.511362,52.7786394 268.815303,52.7896936 C268.859033,52.7570729 268.880627,52.7028857 268.90222,52.627132 C268.923814,52.5513783 268.923814,52.4750828 268.913288,52.4103833 C268.90222,52.3346296 268.869558,52.2693882 268.815303,52.2262552 L268.207964,52.1610138 C267.958279,52.1394473 267.76285,52.0852601 267.589014,52.0200187 C267.404653,51.944265 267.26348,51.8248365 267.122849,51.6622749 C266.981675,51.4997133 266.85157,51.261398 266.720922,50.9688956 C266.580291,50.6653389 266.439118,50.2755163 266.276351,49.7983438 L263.162179,40.8358906 C262.988344,40.3371517 262.814508,39.8389547 262.651741,39.3402158 C262.46738,38.8420187 262.315681,38.3432798 262.163439,37.8555951 C262.13132,37.7687872 262.08759,37.7146 262.022808,37.6930335 C261.957485,37.6604128 261.892161,37.6499005 261.816311,37.6499005 C261.740462,37.7472207 261.643018,37.8555951 261.523439,37.9639695 C261.414927,38.0723438 261.273754,38.1807182 261.13258,38.2675261 C260.980881,38.3648463 260.818114,38.4406 260.633753,38.4947872 C260.655347,38.6142158 260.655347,38.7441567 260.633753,38.8851517 C260.612159,39.0261468 260.568429,39.1992207 260.503647,39.394403 C260.438324,39.5895852 260.351406,39.806334 260.253963,40.07727 L257.931491,46.1031025 C257.617025,46.9264227 257.334678,47.6524227 257.085535,48.2705901 C256.83585,48.8882158 256.607759,49.4300877 256.423398,49.8851517 C256.227969,50.3402158 256.07627,50.7305803 255.935096,51.07727 C255.826585,51.3371517 255.707005,51.5433882 255.555306,51.7059498 C255.414133,51.8574571 255.262434,51.9768857 255.099666,52.0415852 C254.925831,52.1068266 254.752538,52.1499596 254.567635,52.1610138 L253.819122,52.2262552 C253.775935,52.2693882 253.753798,52.3346296 253.743273,52.4103833 C253.732205,52.4750828 253.743273,52.5513783 253.764867,52.627132 C253.78646,52.7028857 253.819122,52.7570729 253.86231,52.7896936 C254.177319,52.7786394 254.524447,52.7570729 254.904237,52.7460187 C255.284027,52.7355064 255.663818,52.7244522 256.043608,52.7244522 C256.575097,52.7355064 257.03128,52.7355064 257.41107,52.7460187 C257.779792,52.7570729 258.116395,52.7681271 258.409267,52.7896936 C258.474048,52.7570729 258.517779,52.7028857 258.550441,52.627132 C258.572034,52.5513783 258.572034,52.4750828 258.560966,52.4103833 C258.539372,52.3346296 258.50671,52.2693882 258.452455,52.2262552 L257.703942,52.1610138 C257.530107,52.1499596 257.388933,52.1178808 257.29149,52.0852601 C257.194047,52.0526394 257.128723,52.0095064 257.096061,51.944265 C257.063399,51.8790236 257.041805,51.80327 257.041805,51.7164621 C257.041805,51.5975754 257.085535,51.3808266 257.17191,51.07727 C257.248303,50.7737133 257.378408,50.3728365 257.551701,49.8635852 L258.343943,47.5224818 C258.387673,47.3709744 258.452455,47.2515458 258.517779,47.1868463 C258.572034,47.1000384 258.658952,47.0458512 258.767464,47.0242847 C258.875975,47.0021764 259.016606,46.991664 259.20151,46.991664 L262.641215,46.991664 C262.858238,46.991664 263.031531,47.0021764 263.151111,47.0242847 C263.259622,47.0458512 263.357066,47.1105507 263.411322,47.1868463 C263.465577,47.2731123 263.519833,47.3814867 263.574089,47.5440483 L264.572829,50.578531 Z" id="Fill-1" fill="#FFFFFF" sketch:type="MSShapeGroup"></path>
                <g id="Group-5">
                    <mask id="mask-2" sketch:name="Clip 4" fill="white">
                        <use xlink:href="#path-1"></use>
                    </mask>
                    <g id="Clip-4"></g>
                </g>
                <g id="Group" transform="translate(13.000000, 13.000000)" sketch:type="MSShapeGroup">
                    <path d="M56.1872529,0.073632266 L56.1627565,22.515014 L62.2175352,24.9696126 L62.1282574,46.4522062 L77.5176562,50.6788071 L77.5176562,8.78685148 L56.1872529,0.073632266 Z" id="Fill-44" fill="#F2F2F2"></path>
                    <path d="M60.6878486,25.9532727 L39.2673537,17.2400534 L39.2673537,54.2713367 L60.6878486,60.2944057 L60.6878486,25.9532727 Z" id="Fill-46" fill="#F2F2F2"></path>
                    <path d="M19.572517,30.1636988 L35.222669,18.8573786 L35.3123538,13.8179697 L36.7527625,12.5581175 L19.6460065,5.73053128 L19.572517,30.1636988 Z" id="Fill-60" fill="#F2F2F2"></path>
                    <path d="M39.2673537,17.2400534 L19.5563217,31.5292973 L19.5563217,65.9595953 L39.2673537,54.2713367 L39.2673537,17.2400534 Z" id="Fill-62" fill="#FFFFFF"></path>
                    <path d="M19.572517,30.1636988 L19.6539007,5.73053128 L0.032553449,20.1172308 L0.121831283,62.0908736 L18.3924545,51.0366865 L18.3031767,31.082253 L19.572517,30.1636988 Z" id="Fill-64" fill="#FFFFFF"></path>
                    <path d="M36.484107,14.452033 L36.484107,17.8741167 L39.3570303,15.7118852 L56.1627483,22.5150059 L56.1872448,0.0736241379 L36.484107,14.452033 Z" id="Fill-66" fill="#FFFFFF"></path>
                </g>
            </g>
        </g>
    </g>
</svg>